# Made in Blockbench 4.12.4
mtllib magnetic_separator_drum_mirrored.mtl

o tube
v -0.6937499999999998 0.6328411962642022 0.8821368819336397
v 2.66875 1.6593749999999998 0.8490542143521047
v -0.6937499999999998 1.6593749999999998 0.8490542143521047
v 2.66875 1.5359088037357975 0.8821368819336399
v -0.6937499999999998 1.5359088037357975 0.8821368819336399
v 2.66875 1.5053042143521043 0.5821957856478956
v -0.6937499999999998 1.5053042143521043 0.5821957856478956
v 2.66875 1.4149206856694376 0.6725793143305625
v -0.6937499999999998 1.4149206856694376 0.6725793143305625
v 2.66875 1.2384457856478952 0.42812499999999987
v -0.6937499999999998 1.2384457856478952 0.42812499999999987
v 2.66875 1.20536311806636 0.5515911962642022
v -0.6937499999999998 1.20536311806636 0.5515911962642022
v 2.66875 0.9303042143521043 0.42812499999999987
v -0.6937499999999998 0.9303042143521043 0.42812499999999987
v 2.66875 0.9633868819336397 0.5515911962642022
v -0.6937499999999998 0.9633868819336397 0.5515911962642022
v 2.66875 0.6634457856478957 0.5821957856478954
v -0.6937499999999998 0.6634457856478957 0.5821957856478954
v 2.66875 0.7538293143305625 0.6725793143305621
v -0.6937499999999998 0.7538293143305625 0.6725793143305621
v 2.66875 0.5093749999999999 0.849054214352104
v -0.6937499999999998 0.5093749999999999 0.849054214352104
v 2.66875 0.6328411962642022 0.8821368819336397
v 2.66875 0.5093749999999997 1.1571957856478952
v -0.6937499999999998 0.5093749999999997 1.1571957856478952
v 2.66875 0.632841196264202 1.1241131180663597
v -0.6937499999999998 0.632841196264202 1.1241131180663597
v 2.66875 0.663445785647895 1.4240542143521042
v -0.6937499999999998 0.663445785647895 1.4240542143521042
v 2.66875 0.7538293143305621 1.3336706856694374
v -0.6937499999999998 0.7538293143305621 1.3336706856694374
v 2.66875 0.9303042143521043 1.5781249999999998
v -0.6937499999999998 0.9303042143521043 1.5781249999999998
v 2.66875 0.9633868819336397 1.4546588037357977
v -0.6937499999999998 0.9633868819336397 1.4546588037357977
v 2.66875 1.2384457856478952 1.578125
v -0.6937499999999998 1.2384457856478952 1.578125
v 2.66875 1.2053631180663595 1.4546588037357977
v -0.6937499999999998 1.2053631180663595 1.4546588037357977
v 2.66875 1.5053042143521043 1.4240542143521044
v -0.6937499999999998 1.5053042143521043 1.4240542143521044
v 2.66875 1.4149206856694372 1.3336706856694378
v -0.6937499999999998 1.4149206856694372 1.3336706856694378
v 2.66875 1.6593749999999998 1.1571957856478954
v -0.6937499999999998 1.6593749999999998 1.1571957856478954
v 2.66875 1.5359088037357975 1.1241131180663597
v -0.6937499999999998 1.5359088037357975 1.1241131180663597
vt 0 0.96875
vt 0.016746875 0.96875
vt 0.016746875 1
vt 0 1
vt 0.01315078125 1
vt 0 1
vt 0 0.96875
vt 0.01315078125 0.96875
vt 3.469446951953614e-18 0.9982021148883492
vt 0 0.9850512021253413
vt 0.00671005581150835 0.9832532065662898
vt 0.006710199593858275 1
vt 0 0.9932898158424275
vt 0.016746793434327396 0.9932898158424274
vt 0.014948855485630201 0.9999998870906751
vt 0.001797942723106999 1
vt 0 0.96875
vt 0.016746875 0.96875
vt 0.016746875 1
vt 0 1
vt 0.01315078125 1
vt 0 1
vt 0 0.96875
vt 0.01315078125 0.96875
vt 0 0.9982020044409485
vt 3.469446951953614e-18 0.9850510916779407
vt 0.006710199593858275 0.9832532065662898
vt 0.006710055811508346 1
vt 0 0.9932898158424275
vt 0.016746793434327393 0.9932898158424275
vt 0.0149488507112204 1
vt 0.0017979379486971984 0.9999998870906751
vt 0 0.96875
vt 0.016746875 0.96875
vt 0.016746875 1
vt 0 1
vt 0.01315078125 1
vt 0 1
vt 0 0.96875
vt 0.01315078125 0.96875
vt 0 0.998201953125
vt 0 0.985051171875
vt 0.006710156250000002 0.983253125
vt 0.006710156250000002 1
vt 0.006710156250000002 0.983253125
vt 0.006710156250000002 1
vt 0 0.998201953125
vt 0 0.985051171875
vt 0 0.96875
vt 0.016746875 0.96875
vt 0.016746875 1
vt 0 1
vt 0.01315078125 1
vt 0 1
vt 0 0.96875
vt 0.01315078125 0.96875
vt 0.01494890832205936 1
vt 0.001797995559051458 1
vt 0 0.9932899441884917
vt 0.016746793433710164 0.9932898004061417
vt 0.0067101841575725706 0.9832532065656726
vt 0.006710184157572567 1
vt 1.1290932488278171e-7 0.9982020620513028
vt 0 0.9850511492887796
vt 0 0.96875
vt 0.016746875 0.96875
vt 0.016746875 1
vt 0 1
vt 0.01315078125 1
vt 0 1
vt 0 0.96875
vt 0.01315078125 0.96875
vt 0.014948797874658703 1
vt 0.0017978851116508023 1
vt 0 0.9932898004061417
vt 0.01674679343371016 0.9932899441884917
vt 0.0067101841575725775 0.9832532065656726
vt 0.006710184157572574 1
vt 0 0.998202057276893
vt 1.1290932489319006e-7 0.9850511445143698
vt 0 0.96875
vt 0.016746875 0.96875
vt 0.016746875 1
vt 0 1
vt 0.01315078125 1
vt 0 1
vt 0 0.96875
vt 0.01315078125 0.96875
vt 0.014948828125 1
vt 0.0017980468750000006 1
vt 0 0.99328984375
vt 0.016746875 0.99328984375
vt 0.016746875 1
vt 0 1
vt 0.0017980468750000006 0.99328984375
vt 0.014948828125 0.99328984375
vt 0 0.96875
vt 0.016746875 0.96875
vt 0.016746875 1
vt 0 1
vt 0.01315078125 1
vt 0 1
vt 0 0.96875
vt 0.01315078125 0.96875
vt 0.006710199593858275 0.9850510916779407
vt 0.006710199593858272 0.9982020044409485
vt 1.43782349922017e-7 1
vt 0 0.9832532065662898
vt 0.016746793434327396 1
vt 0 1
vt 0.001797937948697195 0.9932899287517523
vt 0.014948850711220398 0.9932898158424274
vt 0 0.96875
vt 0.016746875 0.96875
vt 0.016746875 1
vt 0 1
vt 0.01315078125 1
vt 0 1
vt 0 0.96875
vt 0.01315078125 0.96875
vt 0.006710199593858275 0.9850512021253413
vt 0.006710199593858272 0.9982021148883492
vt 0 1
vt 1.437823499289559e-7 0.9832532065662898
vt 0.016746793434327396 1
vt 0 1
vt 0.0017979427231070008 0.9932898158424274
vt 0.014948855485630201 0.9932899287517523
vt 0 0.96875
vt 0.016746875 0.96875
vt 0.016746875 1
vt 0 1
vt 0.01315078125 1
vt 0 1
vt 0 0.96875
vt 0.01315078125 0.96875
vt 0.006710156250000002 0.985051171875
vt 0.006710156250000002 0.998201953125
vt 0 1
vt 0 0.983253125
vt 0 1
vt 0 0.983253125
vt 0.006710156250000002 0.985051171875
vt 0.006710156250000002 0.998201953125
vt 0 0.96875
vt 0.016746875 0.96875
vt 0.016746875 1
vt 0 1
vt 0.01315078125 1
vt 0 1
vt 0 0.96875
vt 0.01315078125 0.96875
vt 0.001797885111650804 0.9932898004061417
vt 0.014948797874658706 0.9932898004061417
vt 0.016746793433710164 0.9999998562176501
vt 0 1
vt 3.469446951953614e-18 1
vt 0 0.9832532065656726
vt 0.006710071248247688 0.9850511445143698
vt 0.0067101841575725775 0.998202057276893
vt 0 0.96875
vt 0.016746875 0.96875
vt 0.016746875 1
vt 0 1
vt 0.01315078125 1
vt 0 1
vt 0 0.96875
vt 0.01315078125 0.96875
vt 0.0017979955590514598 0.9932898004061417
vt 0.01494890832205936 0.9932898004061417
vt 0.01674679343371016 1
vt 0 0.9999998562176501
vt 0 1
vt 3.469446951953614e-18 0.9832532065656726
vt 0.0067101841575725775 0.9850511492887796
vt 0.006710071248247684 0.9982020620513028
vt 0 0.96875
vt 0.016746875 0.96875
vt 0.016746875 1
vt 0 1
vt 0.01315078125 1
vt 0 1
vt 0 0.96875
vt 0.01315078125 0.96875
vt 0.0017980468750000006 0.99328984375
vt 0.014948828125 0.99328984375
vt 0.016746875 1
vt 0 1
vt 0 0.99328984375
vt 0.016746875 0.99328984375
vt 0.014948828125 1
vt 0.0017980468750000006 1
vn 0 0.8660254037844387 -0.4999999999999999
vn 0 -0.8660254037844387 0.5000000000000001
vn 1 0 0
vn -1 0 0
vn 0 0.5000000000000001 -0.8660254037844387
vn 0 -0.5000000000000001 0.8660254037844388
vn 1 0 0
vn -1 0 0
vn 0 1.2246467991473532e-16 -1
vn 0 -1.2246467991473532e-16 1
vn 1 0 0
vn -1 0 0
vn 0 -0.5000000000000003 -0.8660254037844385
vn 0 0.5000000000000001 0.8660254037844387
vn 1 0 0
vn -1 0 0
vn 0 -0.8660254037844382 -0.5000000000000011
vn 0 0.8660254037844382 0.500000000000001
vn 1 0 0
vn -1 0 0
vn 0 -1 -1.2246467991473532e-16
vn 0 1 1.2246467991473532e-16
vn 1 0 0
vn -1 0 0
vn 0 -0.8660254037844393 0.49999999999999917
vn 0 0.8660254037844387 -0.5
vn 1 0 0
vn -1 0 0
vn 0 -0.49999999999999956 0.8660254037844392
vn 0 0.5000000000000003 -0.8660254037844387
vn 1 0 0
vn -1 0 0
vn 0 -3.026128858118606e-16 1
vn 0 1.2246467991473532e-16 -1
vn 1 0 0
vn -1 0 0
vn 0 0.49999999999999956 0.866025403784439
vn 0 -0.4999999999999991 -0.8660254037844393
vn 1 0 0
vn -1 0 0
vn 0 0.8660254037844387 0.5000000000000002
vn 0 -0.8660254037844387 -0.5000000000000003
vn 1 0 0
vn -1 0 0
vn 0 1 1.2246467991473532e-16
vn 0 -1 -1.2246467991473532e-16
vn 1 0 0
vn -1 0 0
usemtl m_c3f64431-d3f9-bfb0-ae75-89c6e7717ef0
f 2/1/1 6/2/1 7/3/1 3/4/1
f 5/5/2 9/6/2 8/7/2 4/8/2
f 4/9/3 8/10/3 6/11/3 2/12/3
f 3/13/4 7/14/4 9/15/4 5/16/4
f 6/17/5 10/18/5 11/19/5 7/20/5
f 9/21/6 13/22/6 12/23/6 8/24/6
f 8/25/7 12/26/7 10/27/7 6/28/7
f 7/29/8 11/30/8 13/31/8 9/32/8
f 10/33/9 14/34/9 15/35/9 11/36/9
f 13/37/10 17/38/10 16/39/10 12/40/10
f 12/41/11 16/42/11 14/43/11 10/44/11
f 11/45/12 15/46/12 17/47/12 13/48/12
f 14/49/13 18/50/13 19/51/13 15/52/13
f 17/53/14 21/54/14 20/55/14 16/56/14
f 16/57/15 20/58/15 18/59/15 14/60/15
f 15/61/16 19/62/16 21/63/16 17/64/16
f 18/65/17 22/66/17 23/67/17 19/68/17
f 21/69/18 1/70/18 24/71/18 20/72/18
f 20/73/19 24/74/19 22/75/19 18/76/19
f 19/77/20 23/78/20 1/79/20 21/80/20
f 22/81/21 25/82/21 26/83/21 23/84/21
f 1/85/22 28/86/22 27/87/22 24/88/22
f 24/89/23 27/90/23 25/91/23 22/92/23
f 23/93/24 26/94/24 28/95/24 1/96/24
f 25/97/25 29/98/25 30/99/25 26/100/25
f 28/101/26 32/102/26 31/103/26 27/104/26
f 27/105/27 31/106/27 29/107/27 25/108/27
f 26/109/28 30/110/28 32/111/28 28/112/28
f 29/113/29 33/114/29 34/115/29 30/116/29
f 32/117/30 36/118/30 35/119/30 31/120/30
f 31/121/31 35/122/31 33/123/31 29/124/31
f 30/125/32 34/126/32 36/127/32 32/128/32
f 33/129/33 37/130/33 38/131/33 34/132/33
f 36/133/34 40/134/34 39/135/34 35/136/34
f 35/137/35 39/138/35 37/139/35 33/140/35
f 34/141/36 38/142/36 40/143/36 36/144/36
f 37/145/37 41/146/37 42/147/37 38/148/37
f 40/149/38 44/150/38 43/151/38 39/152/38
f 39/153/39 43/154/39 41/155/39 37/156/39
f 38/157/40 42/158/40 44/159/40 40/160/40
f 41/161/41 45/162/41 46/163/41 42/164/41
f 44/165/42 48/166/42 47/167/42 43/168/42
f 43/169/43 47/170/43 45/171/43 41/172/43
f 42/173/44 46/174/44 48/175/44 44/176/44
f 45/177/45 2/178/45 3/179/45 46/180/45
f 48/181/46 5/182/46 4/183/46 47/184/46
f 47/185/47 4/186/47 2/187/47 45/188/47
f 46/189/48 3/190/48 5/191/48 48/192/48
o circle
v 2.671875 1.0843749999999999 0.9999999999999998
v 2.671875 1.5843749999999996 0.8660254037844388
v 2.671875 1.4504004037844382 0.6339745962155614
v 2.671875 1.218349596215561 0.4999999999999998
v 2.671875 0.9504004037844382 0.4999999999999998
v 2.671875 0.7183495962155613 0.6339745962155612
v 2.671875 0.5843749999999999 0.8660254037844382
v 2.671875 0.5843749999999996 1.133974596215561
v 2.671875 0.7183495962155608 1.3660254037844384
v 2.671875 0.9504004037844385 1.5
v 2.671875 1.2183495962155608 1.5
v 2.671875 1.450400403784438 1.3660254037844386
v 2.671875 1.5843749999999996 1.1339745962155612
vt 0.01617617247398788 0.9719819986498287
vt 3.469446951953614e-18 0.9676476550520242
vt 0 1
vt 0.03125 1
vt 0.03125 0.983253125
vt 0 0.9916265625
vt 0.02801796478522709 1
vt 0.03235238716951821 0.9838238486367558
vt 0 0.9838238486367558
vt 0.02801800135017134 1
vt 0.03235234494797576 0.9838238275260122
vt 0 0.9838238275260122
vt 0 1
vt 0.016746875 1
vt 0.0083734375 0.96875
vt 0 0.9956655776157088
vt 0.016176151363244205 1
vt 0.0161761513632442 0.9676476128304818
vt 0 0.9956656564021956
vt 0.016176172473987876 1
vt 0.01617617247398788 0.9676476550520242
vt 0 0.983253125
vt 0 1
vt 0.03125 0.9916265625
vt 0.004334422384291117 0.9838238486367558
vt 0 1
vt 0.03235238716951821 1
vt 0.004334343597804418 0.9838238275260122
vt 0 1
vt 0.03235234494797576 1
vt 0.016746875 0.96875
vt 0 0.96875
vt 0.0083734375 1
vt 0.016176151363244205 0.9719820352147729
vt 0 0.9676476128304818
vt 5.204170427930421e-18 1
vn 1 0 0
vn 1 0 0
vn 1 0 0
vn 1 0 0
vn 1 0 0
vn 1 0 0
vn 1 0 0
vn 1 0 0
vn 1 0 0
vn 1 0 0
vn 1 0 0
vn 1 0 0
usemtl m_c3f64431-d3f9-bfb0-ae75-89c6e7717ef0
f 52/193/49 51/194/49 49/195/49
f 53/196/50 52/197/50 49/198/50
f 54/199/51 53/200/51 49/201/51
f 55/202/52 54/203/52 49/204/52
f 56/205/53 55/206/53 49/207/53
f 57/208/54 56/209/54 49/210/54
f 58/211/55 57/212/55 49/213/55
f 59/214/56 58/215/56 49/216/56
f 60/217/57 59/218/57 49/219/57
f 61/220/58 60/221/58 49/222/58
f 50/223/59 61/224/59 49/225/59
f 51/226/60 50/227/60 49/228/60
o circle
v -0.6924999999999999 1.0843749999999999 0.9999999999999998
v -0.6924999999999999 1.5843749999999996 0.8660254037844388
v -0.6924999999999999 1.4504004037844382 0.6339745962155614
v -0.6924999999999999 1.218349596215561 0.4999999999999998
v -0.6924999999999999 0.9504004037844382 0.4999999999999998
v -0.6924999999999999 0.7183495962155613 0.6339745962155612
v -0.6924999999999999 0.5843749999999999 0.8660254037844382
v -0.6924999999999999 0.5843749999999996 1.133974596215561
v -0.6924999999999999 0.7183495962155608 1.3660254037844384
v -0.6924999999999999 0.9504004037844385 1.5
v -0.6924999999999999 1.2183495962155608 1.5
v -0.6924999999999999 1.450400403784438 1.3660254037844386
v -0.6924999999999999 1.5843749999999996 1.1339745962155612
vt 3.469446951953614e-18 0.9676476550520242
vt 0.01617617247398788 0.9719819986498287
vt 0 1
vt 0.03125 0.983253125
vt 0.03125 1
vt 0 0.9916265625
vt 0.03235238716951821 0.9838238486367558
vt 0.02801796478522709 1
vt 0 0.9838238486367558
vt 0.03235234494797576 0.9838238275260122
vt 0.02801800135017134 1
vt 0 0.9838238275260122
vt 0.016746875 1
vt 0 1
vt 0.0083734375 0.96875
vt 0.016176151363244205 1
vt 0 0.9956655776157088
vt 0.0161761513632442 0.9676476128304818
vt 0.016176172473987876 1
vt 0 0.9956656564021956
vt 0.01617617247398788 0.9676476550520242
vt 0 1
vt 0 0.983253125
vt 0.03125 0.9916265625
vt 0 1
vt 0.004334422384291117 0.9838238486367558
vt 0.03235238716951821 1
vt 0 1
vt 0.004334343597804418 0.9838238275260122
vt 0.03235234494797576 1
vt 0 0.96875
vt 0.016746875 0.96875
vt 0.0083734375 1
vt 0 0.9676476128304818
vt 0.016176151363244205 0.9719820352147729
vt 5.204170427930421e-18 1
vn -1 0 0
vn -1 0 0
vn -1 0 0
vn -1 0 0
vn -1 0 0
vn -1 0 0
vn -1 0 0
vn -1 0 0
vn -1 0 0
vn -1 0 0
vn -1 0 0
vn -1 0 0
usemtl m_c3f64431-d3f9-bfb0-ae75-89c6e7717ef0
f 64/229/61 65/230/61 62/231/61
f 65/232/62 66/233/62 62/234/62
f 66/235/63 67/236/63 62/237/63
f 67/238/64 68/239/64 62/240/64
f 68/241/65 69/242/65 62/243/65
f 69/244/66 70/245/66 62/246/66
f 70/247/67 71/248/67 62/249/67
f 71/250/68 72/251/68 62/252/68
f 72/253/69 73/254/69 62/255/69
f 73/256/70 74/257/70 62/258/70
f 74/259/71 63/260/71 62/261/71
f 63/262/72 64/263/72 62/264/72