# Made in Blockbench 4.9.4
mtllib metal_roller_base_mirrored.mtl

o cube
v -0.375 0.1875 1
v -0.375 0.1875 0
v -0.375 0 1
v -0.375 0 0
v -0.6875 0.1875 0
v -0.6875 0.1875 1
v -0.6875 0 0
v -0.6875 0 1
vt 0.609375 0.109375
vt 0.6484375 0.109375
vt 0.6484375 0.0859375
vt 0.609375 0.0859375
vt 0.609375 0.109375
vt 0.75 0.109375
vt 0.75 0.0625
vt 0.609375 0.0625
vt 0.609375 0.109375
vt 0.6484375 0.109375
vt 0.6484375 0.0859375
vt 0.609375 0.0859375
vt 0.609375 0.109375
vt 0.734375 0.109375
vt 0.734375 0.0859375
vt 0.609375 0.0859375
vt 0.6484375 0.1171875
vt 0.609375 0.1171875
vt 0.609375 0.2421875
vt 0.6484375 0.2421875
vt 0.6484375 0.2421875
vt 0.609375 0.2421875
vt 0.609375 0.1171875
vt 0.6484375 0.1171875
vn 0 0 -1
vn 1 0 0
vn 0 0 1
vn -1 0 0
vn 0 1 0
vn 0 -1 0
usemtl m_305bbb48-0865-514a-2573-6f96182f18f2
f 4/4/1 7/3/1 5/2/1 2/1/1
f 3/8/2 4/7/2 2/6/2 1/5/2
f 8/12/3 3/11/3 1/10/3 6/9/3
f 7/16/4 8/15/4 6/14/4 5/13/4
f 6/20/5 1/19/5 2/18/5 5/17/5
f 7/24/6 4/23/6 3/22/6 8/21/6
o cube
v -0.3125 0.9375 0.8125
v -0.3125 0.9375 0.1875
v -0.3125 0.5 0.8125
v -0.3125 0.5 0.1875
v -0.4375 0.9375 0.1875
v -0.4375 0.9375 0.8125
v -0.4375 0.5 0.1875
v -0.4375 0.5 0.8125
vt 0.71875 0.2421875
vt 0.734375 0.2421875
vt 0.734375 0.1875
vt 0.71875 0.1875
vt 0.609375 0.2421875
vt 0.703125 0.2421875
vt 0.703125 0.1640625
vt 0.609375 0.1640625
vt 0.734375 0.2421875
vt 0.75 0.2421875
vt 0.75 0.1875
vt 0.734375 0.1875
vt 0.609375 0.2421875
vt 0.6875 0.2421875
vt 0.6875 0.1875
vt 0.609375 0.1875
vt 0.703125 0.1640625
vt 0.6875 0.1640625
vt 0.6875 0.2421875
vt 0.703125 0.2421875
vt 0.71875 0.2421875
vt 0.703125 0.2421875
vt 0.703125 0.1640625
vt 0.71875 0.1640625
vn 0 0 -1
vn 1 0 0
vn 0 0 1
vn -1 0 0
vn 0 1 0
vn 0 -1 0
usemtl m_305bbb48-0865-514a-2573-6f96182f18f2
f 12/28/7 15/27/7 13/26/7 10/25/7
f 11/32/8 12/31/8 10/30/8 9/29/8
f 16/36/9 11/35/9 9/34/9 14/33/9
f 15/40/10 16/39/10 14/38/10 13/37/10
f 14/44/11 9/43/11 10/42/11 13/41/11
f 15/48/12 12/47/12 11/46/12 16/45/12
o cube
v 1.625 0.9375 0.8125
v 1.625 0.9375 0.1875
v 1.625 0.1875 0.875
v 1.625 0.1875 0.125
v 1.4375 0.9375 0.8125
v 1.4375 0.9375 0.1875
v 1.4375 0.1875 0.875
v 1.4375 0.1875 0.125
v 1.4375 0.5 0.1875
v 1.625 0.5 0.1875
v 1.625 0.5 0.8125
v 1.4375 0.5 0.8125
vt 0 0.359375
vt 0 0.296875
vt 0.0625 0.296875
vt 0.0625 0.359375
vt 0.0625 0.3515625
vt 0.0625 0.359375
vt 0 0.359375
vt 0 0.3515625
vt 0.15625 0.5078125
vt 0.15625 0.6015625
vt 0.1328125 0.6015625
vt 0.1328125 0.5078125
vt 0 0.359375
vt 0 0.3046875
vt 0.0078125 0.3046875
vt 0.0078125 0.359375
vt 0.0078125 0.26485156249999997
vt 0.0078125 0.3046875
vt 0 0.3046875
vt 0 0.26485156249999997
vt 0.0625 0.2578125
vt 0.0625 0.296875
vt 0 0.296875
vt 0 0.2578125
vt 0.0625 0.26485156249999997
vt 0.0625 0.3046875
vt 0.0546875 0.3046875
vt 0.0546875 0.26485156249999997
vt 0.0625 0.2578125
vt 0.0625 0.296875
vt 0 0.296875
vt 0 0.2578125
vt 0 0.359375
vt 0 0.296875
vt 0.0625 0.296875
vt 0.0625 0.359375
vt 0.0546875 0.359375
vt 0.0546875 0.3046875
vt 0.0625 0.3046875
vt 0.0625 0.359375
vn -1 0 0
vn 0 1 0
vn 0 -1 0
vn 0 0 -1
vn 0 0.19611613513818407 -0.9805806756909203
vn 1 0 0
vn 0 0.19611613513818407 0.9805806756909203
vn -1 0 0
vn 1 0 0
vn 0 0 1
usemtl m_305bbb48-0865-514a-2573-6f96182f18f2
f 22/49/13 25/50/13 28/51/13 21/52/13
f 17/53/14 18/54/14 22/55/14 21/56/14
f 20/57/15 19/58/15 23/59/15 24/60/15
f 18/61/16 26/62/16 25/63/16 22/64/16
f 24/65/17 25/66/17 26/67/17 20/68/17
f 20/69/18 26/70/18 27/71/18 19/72/18
f 19/73/19 27/74/19 28/75/19 23/76/19
f 23/77/20 28/78/20 25/79/20 24/80/20
f 17/81/21 27/82/21 26/83/21 18/84/21
f 21/85/22 28/86/22 27/87/22 17/88/22
o cube
v 1.4375 0.9375 0.8125
v 1.4375 0.9375 0.1875
v 1.4375 0.5 0.8125
v 1.4375 0.5 0.1875
v 1.3125 0.9375 0.1875
v 1.3125 0.9375 0.8125
v 1.3125 0.5 0.1875
v 1.3125 0.5 0.8125
vt 0.71875 0.2421875
vt 0.734375 0.2421875
vt 0.734375 0.1875
vt 0.71875 0.1875
vt 0.609375 0.2421875
vt 0.703125 0.2421875
vt 0.703125 0.1640625
vt 0.609375 0.1640625
vt 0.734375 0.2421875
vt 0.75 0.2421875
vt 0.75 0.1875
vt 0.734375 0.1875
vt 0.609375 0.2421875
vt 0.6875 0.2421875
vt 0.6875 0.1875
vt 0.609375 0.1875
vt 0.703125 0.1640625
vt 0.6875 0.1640625
vt 0.6875 0.2421875
vt 0.703125 0.2421875
vt 0.71875 0.2421875
vt 0.703125 0.2421875
vt 0.703125 0.1640625
vt 0.71875 0.1640625
vn 0 0 -1
vn 1 0 0
vn 0 0 1
vn -1 0 0
vn 0 1 0
vn 0 -1 0
usemtl m_305bbb48-0865-514a-2573-6f96182f18f2
f 32/92/23 35/91/23 33/90/23 30/89/23
f 31/96/24 32/95/24 30/94/24 29/93/24
f 36/100/25 31/99/25 29/98/25 34/97/25
f 35/104/26 36/103/26 34/102/26 33/101/26
f 34/108/27 29/107/27 30/106/27 33/105/27
f 35/112/28 32/111/28 31/110/28 36/109/28
o cube
v 2 0.6875 0.6875
v 2 0.6875 0.3125
v 2 0.3125 0.6875
v 2 0.3125 0.3125
v 1.5625 0.6875 0.3125
v 1.5625 0.6875 0.6875
v 1.5625 0.3125 0.3125
v 1.5625 0.3125 0.6875
vt 0.8125 0.2421875
vt 0.8671875 0.2421875
vt 0.8671875 0.1953125
vt 0.8125 0.1953125
vt 0.9375 0.0625
vt 1 0.0625
vt 1 0
vt 0.9375 0
vt 0.8671875 0.2421875
vt 0.921875 0.2421875
vt 0.921875 0.1953125
vt 0.8671875 0.1953125
vt 0.8125 0.1015625
vt 0.859375 0.1015625
vt 0.859375 0.0546875
vt 0.8125 0.0546875
vt 0.8671875 0.1484375
vt 0.8125 0.1484375
vt 0.8125 0.1953125
vt 0.8671875 0.1953125
vt 0.8671875 0.1484375
vt 0.8125 0.1484375
vt 0.8125 0.1015625
vt 0.8671875 0.1015625
vn 0 0 -1
vn 1 0 0
vn 0 0 1
vn -1 0 0
vn 0 1 0
vn 0 -1 0
usemtl m_305bbb48-0865-514a-2573-6f96182f18f2
f 40/116/29 43/115/29 41/114/29 38/113/29
f 39/120/30 40/119/30 38/118/30 37/117/30
f 44/124/31 39/123/31 37/122/31 42/121/31
f 43/128/32 44/127/32 42/126/32 41/125/32
f 42/132/33 37/131/33 38/130/33 41/129/33
f 43/136/34 40/135/34 39/134/34 44/133/34
o cube
v 1.6875 0.1875 1
v 1.6875 0.1875 0
v 1.6875 0 1
v 1.6875 0 0
v 1.375 0.1875 0
v 1.375 0.1875 1
v 1.375 0 0
v 1.375 0 1
vt 0.609375 0.109375
vt 0.6484375 0.109375
vt 0.6484375 0.0859375
vt 0.609375 0.0859375
vt 0.609375 0.109375
vt 0.75 0.109375
vt 0.75 0.0625
vt 0.609375 0.0625
vt 0.609375 0.109375
vt 0.6484375 0.109375
vt 0.6484375 0.0859375
vt 0.609375 0.0859375
vt 0.609375 0.109375
vt 0.734375 0.109375
vt 0.734375 0.0859375
vt 0.609375 0.0859375
vt 0.6484375 0.1171875
vt 0.609375 0.1171875
vt 0.609375 0.2421875
vt 0.6484375 0.2421875
vt 0.6484375 0.2421875
vt 0.609375 0.2421875
vt 0.609375 0.1171875
vt 0.6484375 0.1171875
vn 0 0 -1
vn 1 0 0
vn 0 0 1
vn -1 0 0
vn 0 1 0
vn 0 -1 0
usemtl m_305bbb48-0865-514a-2573-6f96182f18f2
f 48/140/35 51/139/35 49/138/35 46/137/35
f 47/144/36 48/143/36 46/142/36 45/141/36
f 52/148/37 47/147/37 45/146/37 50/145/37
f 51/152/38 52/151/38 50/150/38 49/149/38
f 50/156/39 45/155/39 46/154/39 49/153/39
f 51/160/40 48/159/40 47/158/40 52/157/40
o cube
v -0.4375 0.9375 0.8125
v -0.4375 0.9375 0.1875
v -0.4375 0.1875 0.875
v -0.4375 0.1875 0.125
v -0.625 0.9375 0.8125
v -0.625 0.9375 0.1875
v -0.625 0.1875 0.875
v -0.625 0.1875 0.125
v -0.625 0.5 0.1875
v -0.4375 0.5 0.1875
v -0.4375 0.5 0.8125
v -0.625 0.5 0.8125
vt 0 0.359375
vt 0 0.296875
vt 0.0625 0.296875
vt 0.0625 0.359375
vt 0.0625 0.3515625
vt 0.0625 0.359375
vt 0 0.359375
vt 0 0.3515625
vt 0.15625 0.5078125
vt 0.15625 0.6015625
vt 0.1328125 0.6015625
vt 0.1328125 0.5078125
vt 0 0.359375
vt 0 0.3046875
vt 0.0078125 0.3046875
vt 0.0078125 0.359375
vt 0.0078125 0.26485156249999997
vt 0.0078125 0.3046875
vt 0 0.3046875
vt 0 0.26485156249999997
vt 0.0625 0.2578125
vt 0.0625 0.296875
vt 0 0.296875
vt 0 0.2578125
vt 0.0625 0.26485156249999997
vt 0.0625 0.3046875
vt 0.0546875 0.3046875
vt 0.0546875 0.26485156249999997
vt 0.0625 0.2578125
vt 0.0625 0.296875
vt 0 0.296875
vt 0 0.2578125
vt 0 0.359375
vt 0 0.296875
vt 0.0625 0.296875
vt 0.0625 0.359375
vt 0.0546875 0.359375
vt 0.0546875 0.3046875
vt 0.0625 0.3046875
vt 0.0625 0.359375
vn -1 0 0
vn 0 1 0
vn 0 -1 0
vn 0 0 -1
vn 0 0.19611613513818407 -0.9805806756909203
vn 1 0 0
vn 0 0.19611613513818407 0.9805806756909203
vn -1 0 0
vn 1 0 0
vn 0 0 1
usemtl m_305bbb48-0865-514a-2573-6f96182f18f2
f 58/161/41 61/162/41 64/163/41 57/164/41
f 53/165/42 54/166/42 58/167/42 57/168/42
f 56/169/43 55/170/43 59/171/43 60/172/43
f 54/173/44 62/174/44 61/175/44 58/176/44
f 60/177/45 61/178/45 62/179/45 56/180/45
f 56/181/46 62/182/46 63/183/46 55/184/46
f 55/185/47 63/186/47 64/187/47 59/188/47
f 59/189/48 64/190/48 61/191/48 60/192/48
f 53/193/49 63/194/49 62/195/49 54/196/49
f 57/197/50 64/198/50 63/199/50 53/200/50