# Made in Blockbench 4.9.4
mtllib silicon_crucible_base.mtl

o cylinder
v 0.5 0 0.5
v 0.5 2.5 0.5
v 0.6339745962155613 0 1
v 0.6339745962155613 2.5 1
v 0.8660254037844386 0 0.8660254037844386
v 0.8660254037844386 2.5 0.8660254037844386
v 1 0 0.6339745962155613
v 1 2.5 0.6339745962155613
v 1 0 0.3660254037844386
v 1 2.5 0.3660254037844386
v 0.8660254037844386 0 0.1339745962155614
v 0.8660254037844386 2.5 0.1339745962155614
v 0.6339745962155615 0 1.1102230246251565e-16
v 0.6339745962155615 2.5 1.1102230246251565e-16
v 0.3660254037844389 0 0
v 0.3660254037844389 2.5 0
v 0.1339745962155614 0 0.1339745962155613
v 0.1339745962155614 2.5 0.1339745962155613
v 5.551115123125783e-17 0 0.3660254037844387
v 5.551115123125783e-17 2.5 0.3660254037844387
v 0 0 0.6339745962155611
v 0 2.5 0.6339745962155611
v 0.1339745962155613 0 0.8660254037844386
v 0.1339745962155613 2.5 0.8660254037844386
v 0.3660254037844387 0 1
v 0.3660254037844387 2.5 1
vt 0.405128125 0.6707531250000001
vt 0.376121875 0.6875
vt 0.359375 0.625
vt 0.176903125 0.6875
vt 0.210396875 0.6875
vt 0.210396875 1
vt 0.176903125 1
vt 0.188621875 0.5546875
vt 0.217628125 0.5714343749999999
vt 0.171875 0.6171875
vt 0.421875 0.6417468749999999
vt 0.405128125 0.6707531250000001
vt 0.359375 0.625
vt 0.000540624999999996 0.6875
vt 0.034034375 0.6875
vt 0.034034375 1
vt 0.000540624999999996 1
vt 0.217628125 0.5714343749999999
vt 0.234375 0.6004406250000001
vt 0.171875 0.6171875
vt 0.421875 0.6082531250000001
vt 0.421875 0.6417468749999999
vt 0.359375 0.625
vt 0.034034375 0.6875
vt 0.067528125 0.6875
vt 0.067528125 1
vt 0.034034375 1
vt 0.234375 0.6004406250000001
vt 0.234375 0.6339343749999999
vt 0.171875 0.6171875
vt 0.405128125 0.5792468749999999
vt 0.421875 0.6082531250000001
vt 0.359375 0.625
vt 0.067528125 0.6875
vt 0.10102187500000001 0.6875
vt 0.10102187500000001 1
vt 0.067528125 1
vt 0.234375 0.6339343749999999
vt 0.217628125 0.6629406250000001
vt 0.171875 0.6171875
vt 0.376121875 0.5625
vt 0.405128125 0.5792468749999999
vt 0.359375 0.625
vt 0.000540624999999996 0.3671875
vt 0.034034375 0.3671875
vt 0.034034375 0.6796875
vt 0.000540624999999996 0.6796875
vt 0.217628125 0.6629406250000001
vt 0.188621875 0.6796875
vt 0.171875 0.6171875
vt 0.342628125 0.5625
vt 0.376121875 0.5625
vt 0.359375 0.625
vt 0.034034375 0.3671875
vt 0.067528125 0.3671875
vt 0.067528125 0.6796875
vt 0.034034375 0.6796875
vt 0.188621875 0.6796875
vt 0.155128125 0.6796875
vt 0.171875 0.6171875
vt 0.313621875 0.5792468749999999
vt 0.342628125 0.5625
vt 0.359375 0.625
vt 0.067528125 0.3671875
vt 0.10102187500000001 0.3671875
vt 0.10102187500000001 0.6796875
vt 0.067528125 0.6796875
vt 0.155128125 0.6796875
vt 0.126121875 0.6629406250000001
vt 0.171875 0.6171875
vt 0.296875 0.6082531250000001
vt 0.313621875 0.5792468749999999
vt 0.359375 0.625
vt 0.219290625 0.6875
vt 0.252784375 0.6875
vt 0.252784375 1
vt 0.219290625 1
vt 0.126121875 0.6629406250000001
vt 0.109375 0.6339343749999999
vt 0.171875 0.6171875
vt 0.296875 0.6417468749999999
vt 0.296875 0.6082531250000001
vt 0.359375 0.625
vt 0.252784375 0.6875
vt 0.286278125 0.6875
vt 0.286278125 1
vt 0.252784375 1
vt 0.109375 0.6339343749999999
vt 0.109375 0.6004406250000001
vt 0.171875 0.6171875
vt 0.313621875 0.6707531250000001
vt 0.296875 0.6417468749999999
vt 0.359375 0.625
vt 0.286278125 0.6875
vt 0.31977187500000004 0.6875
vt 0.31977187500000004 1
vt 0.286278125 1
vt 0.109375 0.6004406250000001
vt 0.126121875 0.5714343749999999
vt 0.171875 0.6171875
vt 0.342628125 0.6875
vt 0.313621875 0.6707531250000001
vt 0.359375 0.625
vt 0.10991562499999999 0.6875
vt 0.143409375 0.6875
vt 0.143409375 1
vt 0.10991562499999999 1
vt 0.126121875 0.5714343749999999
vt 0.155128125 0.5546875
vt 0.171875 0.6171875
vt 0.376121875 0.6875
vt 0.342628125 0.6875
vt 0.359375 0.625
vt 0.143409375 0.6875
vt 0.176903125 0.6875
vt 0.176903125 1
vt 0.143409375 1
vt 0.155128125 0.5546875
vt 0.188621875 0.5546875
vt 0.171875 0.6171875
vn 0 -1 0
vn 0.49999999999999983 0 0.8660254037844387
vn 0 1 0
vn 0 -1 0
vn 0.8660254037844388 0 0.5
vn 0 1 0
vn 0 -1 0
vn 1 0 0
vn 0 1 0
vn 0 -1 0
vn 0.8660254037844387 0 -0.49999999999999994
vn 0 1 0
vn 0 -1 0
vn 0.5000000000000001 0 -0.8660254037844386
vn 0 1 0
vn 0 -1 0
vn 4.143408735633879e-16 0 -1
vn 0 1 0
vn 0 -1 0
vn -0.4999999999999996 0 -0.8660254037844389
vn 0 1 0
vn 0 -1 0
vn -0.8660254037844388 0 -0.4999999999999998
vn 0 1 0
vn 0 -1 0
vn -1 0 -2.0717043678169412e-16
vn 0 1 0
vn 0 -1 0
vn -0.8660254037844389 0 0.4999999999999996
vn 0 1 0
vn 0 -1 0
vn -0.4999999999999999 0 0.8660254037844386
vn 0 1 0
vn 0 -1 0
vn 0 0 1
vn 0 1 0
usemtl m_a8c1d8b8-3d49-c4bd-52dd-688dda1ddd7b
f 5/1/1 3/2/1 1/3/1
f 3/4/2 5/5/2 6/6/2 4/7/2
f 4/8/3 6/9/3 2/10/3
f 7/11/4 5/12/4 1/13/4
f 5/14/5 7/15/5 8/16/5 6/17/5
f 6/18/6 8/19/6 2/20/6
f 9/21/7 7/22/7 1/23/7
f 7/24/8 9/25/8 10/26/8 8/27/8
f 8/28/9 10/29/9 2/30/9
f 11/31/10 9/32/10 1/33/10
f 9/34/11 11/35/11 12/36/11 10/37/11
f 10/38/12 12/39/12 2/40/12
f 13/41/13 11/42/13 1/43/13
f 11/44/14 13/45/14 14/46/14 12/47/14
f 12/48/15 14/49/15 2/50/15
f 15/51/16 13/52/16 1/53/16
f 13/54/17 15/55/17 16/56/17 14/57/17
f 14/58/18 16/59/18 2/60/18
f 17/61/19 15/62/19 1/63/19
f 15/64/20 17/65/20 18/66/20 16/67/20
f 16/68/21 18/69/21 2/70/21
f 19/71/22 17/72/22 1/73/22
f 17/74/23 19/75/23 20/76/23 18/77/23
f 18/78/24 20/79/24 2/80/24
f 21/81/25 19/82/25 1/83/25
f 19/84/26 21/85/26 22/86/26 20/87/26
f 20/88/27 22/89/27 2/90/27
f 23/91/28 21/92/28 1/93/28
f 21/94/29 23/95/29 24/96/29 22/97/29
f 22/98/30 24/99/30 2/100/30
f 25/101/31 23/102/31 1/103/31
f 23/104/32 25/105/32 26/106/32 24/107/32
f 24/108/33 26/109/33 2/110/33
f 3/111/34 25/112/34 1/113/34
f 25/114/35 3/115/35 4/116/35 26/117/35
f 26/118/36 4/119/36 2/120/36
o cube
v 0.5625 3 0.9375
v 0.5625 3 0.875
v 0.5625 2.5 0.9375
v 0.5625 2.5 0.875
v 0.4375 3 0.875
v 0.4375 3 0.9375
v 0.4375 2.5 0.875
v 0.4375 2.5 0.9375
vt 0.515625 0.8515625
vt 0.53125 0.8515625
vt 0.53125 0.7890625
vt 0.515625 0.7890625
vt 0.515625 0.8515625
vt 0.5234375 0.8515625
vt 0.5234375 0.7890625
vt 0.515625 0.7890625
vt 0.515625 0.8515625
vt 0.53125 0.8515625
vt 0.53125 0.7890625
vt 0.515625 0.7890625
vt 0.5234375 0.8515625
vt 0.53125 0.8515625
vt 0.53125 0.7890625
vt 0.5234375 0.7890625
vt 0.53125 0.8359375
vt 0.515625 0.8359375
vt 0.515625 0.84375
vt 0.53125 0.84375
vt 0.53125 0.8515625
vt 0.515625 0.8515625
vt 0.515625 0.84375
vt 0.53125 0.84375
vn 0 0 -1
vn 1 0 0
vn 0 0 1
vn -1 0 0
vn 0 1 0
vn 0 -1 0
usemtl m_a8c1d8b8-3d49-c4bd-52dd-688dda1ddd7b
f 30/124/37 33/123/37 31/122/37 28/121/37
f 29/128/38 30/127/38 28/126/38 27/125/38
f 34/132/39 29/131/39 27/130/39 32/129/39
f 33/136/40 34/135/40 32/134/40 31/133/40
f 32/140/41 27/139/41 28/138/41 31/137/41
f 33/144/42 30/143/42 29/142/42 34/141/42
o cube
v 0.5625 3.5625 1.3125
v 0.5625 3.5625 0.4375
v 0.5625 3.5 1.3125
v 0.5625 3.5 0.4375
v 0.4375 3.5625 0.4375
v 0.4375 3.5625 1.3125
v 0.4375 3.5 0.4375
v 0.4375 3.5 1.3125
vt 0.5234375 0.609375
vt 0.5390625 0.609375
vt 0.5390625 0.6015625
vt 0.5234375 0.6015625
vt 0.5078125 0.6171875
vt 0.6171875 0.6171875
vt 0.6171875 0.609375
vt 0.5078125 0.609375
vt 0.5078125 0.6171875
vt 0.5234375 0.6171875
vt 0.5234375 0.609375
vt 0.5078125 0.609375
vt 0.5078125 0.6015625
vt 0.6171875 0.6015625
vt 0.6171875 0.59375
vt 0.5078125 0.59375
vt 0.6171875 0.6171875
vt 0.6171875 0.6015625
vt 0.5078125 0.6015625
vt 0.5078125 0.6171875
vt 0.5078125 0.6171875
vt 0.5078125 0.6015625
vt 0.6171875 0.6015625
vt 0.6171875 0.6171875
vn 0 0 -1
vn 1 0 0
vn 0 0 1
vn -1 0 0
vn 0 1 0
vn 0 -1 0
usemtl m_a8c1d8b8-3d49-c4bd-52dd-688dda1ddd7b
f 38/148/43 41/147/43 39/146/43 36/145/43
f 37/152/44 38/151/44 36/150/44 35/149/44
f 42/156/45 37/155/45 35/154/45 40/153/45
f 41/160/46 42/159/46 40/158/46 39/157/46
f 40/164/47 35/163/47 36/162/47 39/161/47
f 41/168/48 38/167/48 37/166/48 42/165/48
o cube
v 0.625 2.875 0.625
v 0.625 2.875 0.375
v 0.625 2.5 0.625
v 0.625 2.5 0.375
v 0.375 2.875 0.375
v 0.375 2.875 0.625
v 0.375 2.5 0.375
v 0.375 2.5 0.625
vt 0.421875 0.515625
vt 0.453125 0.515625
vt 0.453125 0.46875
vt 0.421875 0.46875
vt 0.421875 0.515625
vt 0.453125 0.515625
vt 0.453125 0.46875
vt 0.421875 0.46875
vt 0.421875 0.515625
vt 0.453125 0.515625
vt 0.453125 0.46875
vt 0.421875 0.46875
vt 0.421875 0.515625
vt 0.453125 0.515625
vt 0.453125 0.46875
vt 0.421875 0.46875
vt 0.5390625 0.8984375
vt 0.5078125 0.8984375
vt 0.5078125 0.9296875
vt 0.5390625 0.9296875
vt 0.453125 0.515625
vt 0.421875 0.515625
vt 0.421875 0.484375
vt 0.453125 0.484375
vn 0 0 -1
vn 1 0 0
vn 0 0 1
vn -1 0 0
vn 0 1 0
vn 0 -1 0
usemtl m_a8c1d8b8-3d49-c4bd-52dd-688dda1ddd7b
f 46/172/49 49/171/49 47/170/49 44/169/49
f 45/176/50 46/175/50 44/174/50 43/173/50
f 50/180/51 45/179/51 43/178/51 48/177/51
f 49/184/52 50/183/52 48/182/52 47/181/52
f 48/188/53 43/187/53 44/186/53 47/185/53
f 49/192/54 46/191/54 45/190/54 50/189/54
o cube
v 0.5625 3 1.3125
v 0.5625 3 0.9375
v 0.5625 2.9375 1.3125
v 0.5625 2.9375 0.9375
v 0.4375 3 0.9375
v 0.4375 3 1.3125
v 0.4375 2.9375 0.9375
v 0.4375 2.9375 1.3125
vt 0.515625 0.828125
vt 0.53125 0.828125
vt 0.53125 0.8203125
vt 0.515625 0.8203125
vt 0.515625 0.796875
vt 0.515625 0.84375
vt 0.5234375 0.84375
vt 0.5234375 0.796875
vt 0.515625 0.8203125
vt 0.53125 0.8203125
vt 0.53125 0.8125
vt 0.515625 0.8125
vt 0.5234375 0.796875
vt 0.5234375 0.84375
vt 0.53125 0.84375
vt 0.53125 0.796875
vt 0.53125 0.796875
vt 0.515625 0.796875
vt 0.515625 0.84375
vt 0.53125 0.84375
vt 0.53125 0.84375
vt 0.515625 0.84375
vt 0.515625 0.796875
vt 0.53125 0.796875
vn 0 0 -1
vn 1 0 0
vn 0 0 1
vn -1 0 0
vn 0 1 0
vn 0 -1 0
usemtl m_a8c1d8b8-3d49-c4bd-52dd-688dda1ddd7b
f 54/196/55 57/195/55 55/194/55 52/193/55
f 53/200/56 54/199/56 52/198/56 51/197/56
f 58/204/57 53/203/57 51/202/57 56/201/57
f 57/208/58 58/207/58 56/206/58 55/205/58
f 56/212/59 51/211/59 52/210/59 55/209/59
f 57/216/60 54/215/60 53/214/60 58/213/60
o cube
v 0.5625 3.5 1.3125
v 0.5625 3.5 1.25
v 0.5625 3 1.3125
v 0.5625 3 1.25
v 0.4375 3.5 1.25
v 0.4375 3.5 1.3125
v 0.4375 3 1.25
v 0.4375 3 1.3125
vt 0.515625 0.8515625
vt 0.53125 0.8515625
vt 0.53125 0.7890625
vt 0.515625 0.7890625
vt 0.5390625 0.8515625
vt 0.546875 0.8515625
vt 0.546875 0.7890625
vt 0.5390625 0.7890625
vt 0.515625 0.8515625
vt 0.53125 0.8515625
vt 0.53125 0.7890625
vt 0.515625 0.7890625
vt 0.53125 0.7578125
vt 0.53125 0.765625
vt 0.59375 0.765625
vt 0.59375 0.7578125
vt 0.5625 0.8984375
vt 0.546875 0.8984375
vt 0.546875 0.90625
vt 0.5625 0.90625
vt 0.125 0.453125
vt 0.109375 0.453125
vt 0.109375 0.4453125
vt 0.125 0.4453125
vn 0 0 -1
vn 1 0 0
vn 0 0 1
vn -1 0 0
vn 0 1 0
vn 0 -1 0
usemtl m_a8c1d8b8-3d49-c4bd-52dd-688dda1ddd7b
f 62/220/61 65/219/61 63/218/61 60/217/61
f 61/224/62 62/223/62 60/222/62 59/221/62
f 66/228/63 61/227/63 59/226/63 64/225/63
f 65/232/64 66/231/64 64/230/64 63/229/64
f 64/236/65 59/235/65 60/234/65 63/233/65
f 65/240/66 62/239/66 61/238/66 66/237/66
o cylinder
v 0.5 2.84375 0.5
v 0.5 2.90625 0.5
v 0.6339745962155613 2.84375 1
v 0.6339745962155613 2.90625 1
v 0.8660254037844386 2.84375 0.8660254037844386
v 0.8660254037844386 2.90625 0.8660254037844386
v 1 2.84375 0.6339745962155612
v 1 2.90625 0.6339745962155612
v 1 2.84375 0.3660254037844386
v 1 2.90625 0.3660254037844386
v 0.8660254037844386 2.84375 0.1339745962155614
v 0.8660254037844386 2.90625 0.1339745962155614
v 0.6339745962155615 2.84375 0
v 0.6339745962155615 2.90625 0
v 0.3660254037844389 2.84375 0
v 0.3660254037844389 2.90625 0
v 0.1339745962155614 2.84375 0.13397459621556118
v 0.1339745962155614 2.90625 0.13397459621556118
v 5.551115123125783e-17 2.84375 0.3660254037844388
v 5.551115123125783e-17 2.90625 0.3660254037844388
v 0 2.84375 0.6339745962155612
v 0 2.90625 0.6339745962155612
v 0.1339745962155613 2.84375 0.8660254037844386
v 0.1339745962155613 2.90625 0.8660254037844386
v 0.3660254037844387 2.84375 1
v 0.3660254037844387 2.90625 1
vt 0.436378125 0.983253125
vt 0.407371875 1
vt 0.390625 0.9375
vt 0.5831531249999999 0.7421875
vt 0.616646875 0.7421875
vt 0.616646875 0.75
vt 0.5831531249999999 0.75
vt 0.407371875 0.7421875
vt 0.436378125 0.7589343749999999
vt 0.390625 0.8046875
vt 0.453125 0.954246875
vt 0.436378125 0.983253125
vt 0.390625 0.9375
vt 0.516165625 0.7734375
vt 0.549659375 0.7734375
vt 0.549659375 0.78125
vt 0.516165625 0.78125
vt 0.436378125 0.7589343749999999
vt 0.453125 0.7879406250000001
vt 0.390625 0.8046875
vt 0.453125 0.9207531250000001
vt 0.453125 0.954246875
vt 0.390625 0.9375
vt 0.549659375 0.7734375
vt 0.5831531249999999 0.7734375
vt 0.5831531249999999 0.78125
vt 0.549659375 0.78125
vt 0.453125 0.7879406250000001
vt 0.453125 0.8214343749999999
vt 0.390625 0.8046875
vt 0.436378125 0.8917468749999999
vt 0.453125 0.9207531250000001
vt 0.390625 0.9375
vt 0.5831531249999999 0.7734375
vt 0.616646875 0.7734375
vt 0.616646875 0.78125
vt 0.5831531249999999 0.78125
vt 0.453125 0.8214343749999999
vt 0.436378125 0.8504406250000001
vt 0.390625 0.8046875
vt 0.407371875 0.875
vt 0.436378125 0.8917468749999999
vt 0.390625 0.9375
vt 0.516165625 0.7578125
vt 0.549659375 0.7578125
vt 0.549659375 0.765625
vt 0.516165625 0.765625
vt 0.436378125 0.8504406250000001
vt 0.407371875 0.8671875
vt 0.390625 0.8046875
vt 0.373878125 0.875
vt 0.407371875 0.875
vt 0.390625 0.9375
vt 0.549659375 0.7578125
vt 0.5831531249999999 0.7578125
vt 0.5831531249999999 0.765625
vt 0.549659375 0.765625
vt 0.407371875 0.8671875
vt 0.373878125 0.8671875
vt 0.390625 0.8046875
vt 0.344871875 0.8917468749999999
vt 0.373878125 0.875
vt 0.390625 0.9375
vt 0.5831531249999999 0.7578125
vt 0.616646875 0.7578125
vt 0.616646875 0.765625
vt 0.5831531249999999 0.765625
vt 0.373878125 0.8671875
vt 0.344871875 0.8504406250000001
vt 0.390625 0.8046875
vt 0.328125 0.9207531250000001
vt 0.344871875 0.8917468749999999
vt 0.390625 0.9375
vt 0.516165625 0.7265625
vt 0.549659375 0.7265625
vt 0.549659375 0.734375
vt 0.516165625 0.734375
vt 0.344871875 0.8504406250000001
vt 0.328125 0.8214343749999999
vt 0.390625 0.8046875
vt 0.328125 0.954246875
vt 0.328125 0.9207531250000001
vt 0.390625 0.9375
vt 0.549659375 0.7265625
vt 0.5831531249999999 0.7265625
vt 0.5831531249999999 0.734375
vt 0.549659375 0.734375
vt 0.328125 0.8214343749999999
vt 0.328125 0.7879406250000001
vt 0.390625 0.8046875
vt 0.344871875 0.983253125
vt 0.328125 0.954246875
vt 0.390625 0.9375
vt 0.5831531249999999 0.7265625
vt 0.616646875 0.7265625
vt 0.616646875 0.734375
vt 0.5831531249999999 0.734375
vt 0.328125 0.7879406250000001
vt 0.344871875 0.7589343749999999
vt 0.390625 0.8046875
vt 0.373878125 1
vt 0.344871875 0.983253125
vt 0.390625 0.9375
vt 0.516165625 0.7421875
vt 0.549659375 0.7421875
vt 0.549659375 0.75
vt 0.516165625 0.75
vt 0.344871875 0.7589343749999999
vt 0.373878125 0.7421875
vt 0.390625 0.8046875
vt 0.407371875 1
vt 0.373878125 1
vt 0.390625 0.9375
vt 0.549659375 0.7421875
vt 0.5831531249999999 0.7421875
vt 0.5831531249999999 0.75
vt 0.549659375 0.75
vt 0.373878125 0.7421875
vt 0.407371875 0.7421875
vt 0.390625 0.8046875
vn 0 -1 0
vn 0.5000000000000002 0 0.8660254037844386
vn 0 1 0
vn 0 -1 0
vn 0.8660254037844388 0 0.4999999999999998
vn 0 1 0
vn 0 -1 0
vn 1 0 0
vn 0 1 0
vn 0 -1 0
vn 0.8660254037844387 0 -0.5
vn 0 1 0
vn 0 -1 0
vn 0.5000000000000004 0 -0.8660254037844386
vn 0 1 0
vn 0 -1 0
vn 0 0 -1
vn 0 1 0
vn 0 -1 0
vn -0.4999999999999993 0 -0.8660254037844392
vn 0 1 0
vn 0 -1 0
vn -0.8660254037844392 0 -0.4999999999999995
vn 0 1 0
vn 0 -1 0
vn -1 0 -2.0717043678169412e-16
vn 0 1 0
vn 0 -1 0
vn -0.8660254037844388 0 0.4999999999999996
vn 0 1 0
vn 0 -1 0
vn -0.4999999999999999 0 0.8660254037844386
vn 0 1 0
vn 0 -1 0
vn 0 0 1
vn 0 1 0
usemtl m_a8c1d8b8-3d49-c4bd-52dd-688dda1ddd7b
f 71/241/67 69/242/67 67/243/67
f 69/244/68 71/245/68 72/246/68 70/247/68
f 70/248/69 72/249/69 68/250/69
f 73/251/70 71/252/70 67/253/70
f 71/254/71 73/255/71 74/256/71 72/257/71
f 72/258/72 74/259/72 68/260/72
f 75/261/73 73/262/73 67/263/73
f 73/264/74 75/265/74 76/266/74 74/267/74
f 74/268/75 76/269/75 68/270/75
f 77/271/76 75/272/76 67/273/76
f 75/274/77 77/275/77 78/276/77 76/277/77
f 76/278/78 78/279/78 68/280/78
f 79/281/79 77/282/79 67/283/79
f 77/284/80 79/285/80 80/286/80 78/287/80
f 78/288/81 80/289/81 68/290/81
f 81/291/82 79/292/82 67/293/82
f 79/294/83 81/295/83 82/296/83 80/297/83
f 80/298/84 82/299/84 68/300/84
f 83/301/85 81/302/85 67/303/85
f 81/304/86 83/305/86 84/306/86 82/307/86
f 82/308/87 84/309/87 68/310/87
f 85/311/88 83/312/88 67/313/88
f 83/314/89 85/315/89 86/316/89 84/317/89
f 84/318/90 86/319/90 68/320/90
f 87/321/91 85/322/91 67/323/91
f 85/324/92 87/325/92 88/326/92 86/327/92
f 86/328/93 88/329/93 68/330/93
f 89/331/94 87/332/94 67/333/94
f 87/334/95 89/335/95 90/336/95 88/337/95
f 88/338/96 90/339/96 68/340/96
f 91/341/97 89/342/97 67/343/97
f 89/344/98 91/345/98 92/346/98 90/347/98
f 90/348/99 92/349/99 68/350/99
f 69/351/100 91/352/100 67/353/100
f 91/354/101 69/355/101 70/356/101 92/357/101
f 92/358/102 70/359/102 68/360/102