# Made in Blockbench 4.10.4
mtllib silicon_crucible.mtl

o cube
v 0.625 2.875 0.625
v 0.625 2.875 0.375
v 0.625 2.5 0.625
v 0.625 2.5 0.375
v 0.375 2.875 0.375
v 0.375 2.875 0.625
v 0.375 2.5 0.375
v 0.375 2.5 0.625
vt 0.421875 0.515625
vt 0.453125 0.515625
vt 0.453125 0.46875
vt 0.421875 0.46875
vt 0.421875 0.515625
vt 0.453125 0.515625
vt 0.453125 0.46875
vt 0.421875 0.46875
vt 0.421875 0.515625
vt 0.453125 0.515625
vt 0.453125 0.46875
vt 0.421875 0.46875
vt 0.421875 0.515625
vt 0.453125 0.515625
vt 0.453125 0.46875
vt 0.421875 0.46875
vt 0.5390625 0.8984375
vt 0.5078125 0.8984375
vt 0.5078125 0.9296875
vt 0.5390625 0.9296875
vt 0.453125 0.515625
vt 0.421875 0.515625
vt 0.421875 0.484375
vt 0.453125 0.484375
vn 0 0 -1
vn 1 0 0
vn 0 0 1
vn -1 0 0
vn 0 1 0
vn 0 -1 0
usemtl m_a8c1d8b8-3d49-c4bd-52dd-688dda1ddd7b
f 4/4/1 7/3/1 5/2/1 2/1/1
f 3/8/2 4/7/2 2/6/2 1/5/2
f 8/12/3 3/11/3 1/10/3 6/9/3
f 7/16/4 8/15/4 6/14/4 5/13/4
f 6/20/5 1/19/5 2/18/5 5/17/5
f 7/24/6 4/23/6 3/22/6 8/21/6
o cube
v 0.5625 3.5625 1.3125
v 0.5625 3.5625 0.4375
v 0.5625 3.5 1.3125
v 0.5625 3.5 0.4375
v 0.4375 3.5625 0.4375
v 0.4375 3.5625 1.3125
v 0.4375 3.5 0.4375
v 0.4375 3.5 1.3125
vt 0.5234375 0.609375
vt 0.5390625 0.609375
vt 0.5390625 0.6015625
vt 0.5234375 0.6015625
vt 0.5078125 0.6171875
vt 0.6171875 0.6171875
vt 0.6171875 0.609375
vt 0.5078125 0.609375
vt 0.5078125 0.6171875
vt 0.5234375 0.6171875
vt 0.5234375 0.609375
vt 0.5078125 0.609375
vt 0.5078125 0.6015625
vt 0.6171875 0.6015625
vt 0.6171875 0.59375
vt 0.5078125 0.59375
vt 0.6171875 0.6171875
vt 0.6171875 0.6015625
vt 0.5078125 0.6015625
vt 0.5078125 0.6171875
vt 0.5078125 0.6171875
vt 0.5078125 0.6015625
vt 0.6171875 0.6015625
vt 0.6171875 0.6171875
vn 0 0 -1
vn 1 0 0
vn 0 0 1
vn -1 0 0
vn 0 1 0
vn 0 -1 0
usemtl m_a8c1d8b8-3d49-c4bd-52dd-688dda1ddd7b
f 12/28/7 15/27/7 13/26/7 10/25/7
f 11/32/8 12/31/8 10/30/8 9/29/8
f 16/36/9 11/35/9 9/34/9 14/33/9
f 15/40/10 16/39/10 14/38/10 13/37/10
f 14/44/11 9/43/11 10/42/11 13/41/11
f 15/48/12 12/47/12 11/46/12 16/45/12
o cube
v 0.5625 3 1.3125
v 0.5625 3 0.9375
v 0.5625 2.9375 1.3125
v 0.5625 2.9375 0.9375
v 0.4375 3 0.9375
v 0.4375 3 1.3125
v 0.4375 2.9375 0.9375
v 0.4375 2.9375 1.3125
vt 0.515625 0.828125
vt 0.53125 0.828125
vt 0.53125 0.8203125
vt 0.515625 0.8203125
vt 0.515625 0.796875
vt 0.515625 0.84375
vt 0.5234375 0.84375
vt 0.5234375 0.796875
vt 0.515625 0.8203125
vt 0.53125 0.8203125
vt 0.53125 0.8125
vt 0.515625 0.8125
vt 0.5234375 0.796875
vt 0.5234375 0.84375
vt 0.53125 0.84375
vt 0.53125 0.796875
vt 0.53125 0.796875
vt 0.515625 0.796875
vt 0.515625 0.84375
vt 0.53125 0.84375
vt 0.53125 0.84375
vt 0.515625 0.84375
vt 0.515625 0.796875
vt 0.53125 0.796875
vn 0 0 -1
vn 1 0 0
vn 0 0 1
vn -1 0 0
vn 0 1 0
vn 0 -1 0
usemtl m_a8c1d8b8-3d49-c4bd-52dd-688dda1ddd7b
f 20/52/13 23/51/13 21/50/13 18/49/13
f 19/56/14 20/55/14 18/54/14 17/53/14
f 24/60/15 19/59/15 17/58/15 22/57/15
f 23/64/16 24/63/16 22/62/16 21/61/16
f 22/68/17 17/67/17 18/66/17 21/65/17
f 23/72/18 20/71/18 19/70/18 24/69/18
o cube
v 0.5625 3.5 1.3125
v 0.5625 3.5 1.25
v 0.5625 3 1.3125
v 0.5625 3 1.25
v 0.4375 3.5 1.25
v 0.4375 3.5 1.3125
v 0.4375 3 1.25
v 0.4375 3 1.3125
vt 0.515625 0.8515625
vt 0.53125 0.8515625
vt 0.53125 0.7890625
vt 0.515625 0.7890625
vt 0.5390625 0.8515625
vt 0.546875 0.8515625
vt 0.546875 0.7890625
vt 0.5390625 0.7890625
vt 0.515625 0.8515625
vt 0.53125 0.8515625
vt 0.53125 0.7890625
vt 0.515625 0.7890625
vt 0.53125 0.7578125
vt 0.53125 0.765625
vt 0.59375 0.765625
vt 0.59375 0.7578125
vt 0.5625 0.8984375
vt 0.546875 0.8984375
vt 0.546875 0.90625
vt 0.5625 0.90625
vt 0.125 0.453125
vt 0.109375 0.453125
vt 0.109375 0.4453125
vt 0.125 0.4453125
vn 0 0 -1
vn 1 0 0
vn 0 0 1
vn -1 0 0
vn 0 1 0
vn 0 -1 0
usemtl m_a8c1d8b8-3d49-c4bd-52dd-688dda1ddd7b
f 28/76/19 31/75/19 29/74/19 26/73/19
f 27/80/20 28/79/20 26/78/20 25/77/20
f 32/84/21 27/83/21 25/82/21 30/81/21
f 31/88/22 32/87/22 30/86/22 29/85/22
f 30/92/23 25/91/23 26/90/23 29/89/23
f 31/96/24 28/95/24 27/94/24 32/93/24
o cube
v 0.5625 3 0.9375
v 0.5625 3 0.875
v 0.5625 2.5 0.9375
v 0.5625 2.5 0.875
v 0.4375 3 0.875
v 0.4375 3 0.9375
v 0.4375 2.5 0.875
v 0.4375 2.5 0.9375
vt 0.515625 0.8515625
vt 0.53125 0.8515625
vt 0.53125 0.7890625
vt 0.515625 0.7890625
vt 0.515625 0.8515625
vt 0.5234375 0.8515625
vt 0.5234375 0.7890625
vt 0.515625 0.7890625
vt 0.515625 0.8515625
vt 0.53125 0.8515625
vt 0.53125 0.7890625
vt 0.515625 0.7890625
vt 0.5234375 0.8515625
vt 0.53125 0.8515625
vt 0.53125 0.7890625
vt 0.5234375 0.7890625
vt 0.53125 0.8359375
vt 0.515625 0.8359375
vt 0.515625 0.84375
vt 0.53125 0.84375
vt 0.53125 0.8515625
vt 0.515625 0.8515625
vt 0.515625 0.84375
vt 0.53125 0.84375
vn 0 0 -1
vn 1 0 0
vn 0 0 1
vn -1 0 0
vn 0 1 0
vn 0 -1 0
usemtl m_a8c1d8b8-3d49-c4bd-52dd-688dda1ddd7b
f 36/100/25 39/99/25 37/98/25 34/97/25
f 35/104/26 36/103/26 34/102/26 33/101/26
f 40/108/27 35/107/27 33/106/27 38/105/27
f 39/112/28 40/111/28 38/110/28 37/109/28
f 38/116/29 33/115/29 34/114/29 37/113/29
f 39/120/30 36/119/30 35/118/30 40/117/30
o cylinder
v 0.5 2.84375 0.5
v 0.5 2.90625 0.5
v 0.6339745962155613 2.84375 1
v 0.6339745962155613 2.90625 1
v 0.8660254037844386 2.84375 0.8660254037844386
v 0.8660254037844386 2.90625 0.8660254037844386
v 1 2.84375 0.6339745962155612
v 1 2.90625 0.6339745962155612
v 1 2.84375 0.3660254037844386
v 1 2.90625 0.3660254037844386
v 0.8660254037844386 2.84375 0.1339745962155614
v 0.8660254037844386 2.90625 0.1339745962155614
v 0.6339745962155615 2.84375 0
v 0.6339745962155615 2.90625 0
v 0.3660254037844389 2.84375 0
v 0.3660254037844389 2.90625 0
v 0.1339745962155614 2.84375 0.13397459621556118
v 0.1339745962155614 2.90625 0.13397459621556118
v 5.551115123125783e-17 2.84375 0.3660254037844388
v 5.551115123125783e-17 2.90625 0.3660254037844388
v 0 2.84375 0.6339745962155612
v 0 2.90625 0.6339745962155612
v 0.1339745962155613 2.84375 0.8660254037844386
v 0.1339745962155613 2.90625 0.8660254037844386
v 0.3660254037844387 2.84375 1
v 0.3660254037844387 2.90625 1
vt 0.436378125 0.983253125
vt 0.407371875 1
vt 0.390625 0.9375
vt 0.5831531249999999 0.7421875
vt 0.616646875 0.7421875
vt 0.616646875 0.75
vt 0.5831531249999999 0.75
vt 0.407371875 0.7421875
vt 0.436378125 0.7589343749999999
vt 0.390625 0.8046875
vt 0.453125 0.954246875
vt 0.436378125 0.983253125
vt 0.390625 0.9375
vt 0.516165625 0.7734375
vt 0.549659375 0.7734375
vt 0.549659375 0.78125
vt 0.516165625 0.78125
vt 0.436378125 0.7589343749999999
vt 0.453125 0.7879406250000001
vt 0.390625 0.8046875
vt 0.453125 0.9207531250000001
vt 0.453125 0.954246875
vt 0.390625 0.9375
vt 0.549659375 0.7734375
vt 0.5831531249999999 0.7734375
vt 0.5831531249999999 0.78125
vt 0.549659375 0.78125
vt 0.453125 0.7879406250000001
vt 0.453125 0.8214343749999999
vt 0.390625 0.8046875
vt 0.436378125 0.8917468749999999
vt 0.453125 0.9207531250000001
vt 0.390625 0.9375
vt 0.5831531249999999 0.7734375
vt 0.616646875 0.7734375
vt 0.616646875 0.78125
vt 0.5831531249999999 0.78125
vt 0.453125 0.8214343749999999
vt 0.436378125 0.8504406250000001
vt 0.390625 0.8046875
vt 0.407371875 0.875
vt 0.436378125 0.8917468749999999
vt 0.390625 0.9375
vt 0.516165625 0.7578125
vt 0.549659375 0.7578125
vt 0.549659375 0.765625
vt 0.516165625 0.765625
vt 0.436378125 0.8504406250000001
vt 0.407371875 0.8671875
vt 0.390625 0.8046875
vt 0.373878125 0.875
vt 0.407371875 0.875
vt 0.390625 0.9375
vt 0.549659375 0.7578125
vt 0.5831531249999999 0.7578125
vt 0.5831531249999999 0.765625
vt 0.549659375 0.765625
vt 0.407371875 0.8671875
vt 0.373878125 0.8671875
vt 0.390625 0.8046875
vt 0.344871875 0.8917468749999999
vt 0.373878125 0.875
vt 0.390625 0.9375
vt 0.5831531249999999 0.7578125
vt 0.616646875 0.7578125
vt 0.616646875 0.765625
vt 0.5831531249999999 0.765625
vt 0.373878125 0.8671875
vt 0.344871875 0.8504406250000001
vt 0.390625 0.8046875
vt 0.328125 0.9207531250000001
vt 0.344871875 0.8917468749999999
vt 0.390625 0.9375
vt 0.516165625 0.7265625
vt 0.549659375 0.7265625
vt 0.549659375 0.734375
vt 0.516165625 0.734375
vt 0.344871875 0.8504406250000001
vt 0.328125 0.8214343749999999
vt 0.390625 0.8046875
vt 0.328125 0.954246875
vt 0.328125 0.9207531250000001
vt 0.390625 0.9375
vt 0.549659375 0.7265625
vt 0.5831531249999999 0.7265625
vt 0.5831531249999999 0.734375
vt 0.549659375 0.734375
vt 0.328125 0.8214343749999999
vt 0.328125 0.7879406250000001
vt 0.390625 0.8046875
vt 0.344871875 0.983253125
vt 0.328125 0.954246875
vt 0.390625 0.9375
vt 0.5831531249999999 0.7265625
vt 0.616646875 0.7265625
vt 0.616646875 0.734375
vt 0.5831531249999999 0.734375
vt 0.328125 0.7879406250000001
vt 0.344871875 0.7589343749999999
vt 0.390625 0.8046875
vt 0.373878125 1
vt 0.344871875 0.983253125
vt 0.390625 0.9375
vt 0.516165625 0.7421875
vt 0.549659375 0.7421875
vt 0.549659375 0.75
vt 0.516165625 0.75
vt 0.344871875 0.7589343749999999
vt 0.373878125 0.7421875
vt 0.390625 0.8046875
vt 0.407371875 1
vt 0.373878125 1
vt 0.390625 0.9375
vt 0.549659375 0.7421875
vt 0.5831531249999999 0.7421875
vt 0.5831531249999999 0.75
vt 0.549659375 0.75
vt 0.373878125 0.7421875
vt 0.407371875 0.7421875
vt 0.390625 0.8046875
vn 0 -1 0
vn 0.5000000000000002 0 0.8660254037844386
vn 0 1 0
vn 0 -1 0
vn 0.8660254037844388 0 0.4999999999999998
vn 0 1 0
vn 0 -1 0
vn 1 0 0
vn 0 1 0
vn 0 -1 0
vn 0.8660254037844387 0 -0.5
vn 0 1 0
vn 0 -1 0
vn 0.5000000000000004 0 -0.8660254037844386
vn 0 1 0
vn 0 -1 0
vn 0 0 -1
vn 0 1 0
vn 0 -1 0
vn -0.4999999999999993 0 -0.8660254037844392
vn 0 1 0
vn 0 -1 0
vn -0.8660254037844392 0 -0.4999999999999995
vn 0 1 0
vn 0 -1 0
vn -1 0 -2.0717043678169412e-16
vn 0 1 0
vn 0 -1 0
vn -0.8660254037844388 0 0.4999999999999996
vn 0 1 0
vn 0 -1 0
vn -0.4999999999999999 0 0.8660254037844386
vn 0 1 0
vn 0 -1 0
vn 0 0 1
vn 0 1 0
usemtl m_a8c1d8b8-3d49-c4bd-52dd-688dda1ddd7b
f 45/121/31 43/122/31 41/123/31
f 43/124/32 45/125/32 46/126/32 44/127/32
f 44/128/33 46/129/33 42/130/33
f 47/131/34 45/132/34 41/133/34
f 45/134/35 47/135/35 48/136/35 46/137/35
f 46/138/36 48/139/36 42/140/36
f 49/141/37 47/142/37 41/143/37
f 47/144/38 49/145/38 50/146/38 48/147/38
f 48/148/39 50/149/39 42/150/39
f 51/151/40 49/152/40 41/153/40
f 49/154/41 51/155/41 52/156/41 50/157/41
f 50/158/42 52/159/42 42/160/42
f 53/161/43 51/162/43 41/163/43
f 51/164/44 53/165/44 54/166/44 52/167/44
f 52/168/45 54/169/45 42/170/45
f 55/171/46 53/172/46 41/173/46
f 53/174/47 55/175/47 56/176/47 54/177/47
f 54/178/48 56/179/48 42/180/48
f 57/181/49 55/182/49 41/183/49
f 55/184/50 57/185/50 58/186/50 56/187/50
f 56/188/51 58/189/51 42/190/51
f 59/191/52 57/192/52 41/193/52
f 57/194/53 59/195/53 60/196/53 58/197/53
f 58/198/54 60/199/54 42/200/54
f 61/201/55 59/202/55 41/203/55
f 59/204/56 61/205/56 62/206/56 60/207/56
f 60/208/57 62/209/57 42/210/57
f 63/211/58 61/212/58 41/213/58
f 61/214/59 63/215/59 64/216/59 62/217/59
f 62/218/60 64/219/60 42/220/60
f 65/221/61 63/222/61 41/223/61
f 63/224/62 65/225/62 66/226/62 64/227/62
f 64/228/63 66/229/63 42/230/63
f 43/231/64 65/232/64 41/233/64
f 65/234/65 43/235/65 44/236/65 66/237/65
f 66/238/66 44/239/66 42/240/66
o cylinder
v 0.5 0 0.5
v 0.5 2.5 0.5
v 0.6339745962155613 0 1
v 0.6339745962155613 2.5 1
v 0.8660254037844386 0 0.8660254037844386
v 0.8660254037844386 2.5 0.8660254037844386
v 1 0 0.6339745962155613
v 1 2.5 0.6339745962155613
v 1 0 0.3660254037844386
v 1 2.5 0.3660254037844386
v 0.8660254037844386 0 0.1339745962155614
v 0.8660254037844386 2.5 0.1339745962155614
v 0.6339745962155615 0 1.1102230246251565e-16
v 0.6339745962155615 2.5 1.1102230246251565e-16
v 0.3660254037844389 0 0
v 0.3660254037844389 2.5 0
v 0.1339745962155614 0 0.1339745962155613
v 0.1339745962155614 2.5 0.1339745962155613
v 5.551115123125783e-17 0 0.3660254037844387
v 5.551115123125783e-17 2.5 0.3660254037844387
v 0 0 0.6339745962155611
v 0 2.5 0.6339745962155611
v 0.1339745962155613 0 0.8660254037844386
v 0.1339745962155613 2.5 0.8660254037844386
v 0.3660254037844387 0 1
v 0.3660254037844387 2.5 1
vt 0.405128125 0.6707531250000001
vt 0.376121875 0.6875
vt 0.359375 0.625
vt 0.176903125 0.6875
vt 0.210396875 0.6875
vt 0.210396875 1
vt 0.176903125 1
vt 0.188621875 0.5546875
vt 0.217628125 0.5714343749999999
vt 0.171875 0.6171875
vt 0.421875 0.6417468749999999
vt 0.405128125 0.6707531250000001
vt 0.359375 0.625
vt 0.000540624999999996 0.6875
vt 0.034034375 0.6875
vt 0.034034375 1
vt 0.000540624999999996 1
vt 0.217628125 0.5714343749999999
vt 0.234375 0.6004406250000001
vt 0.171875 0.6171875
vt 0.421875 0.6082531250000001
vt 0.421875 0.6417468749999999
vt 0.359375 0.625
vt 0.034034375 0.6875
vt 0.067528125 0.6875
vt 0.067528125 1
vt 0.034034375 1
vt 0.234375 0.6004406250000001
vt 0.234375 0.6339343749999999
vt 0.171875 0.6171875
vt 0.405128125 0.5792468749999999
vt 0.421875 0.6082531250000001
vt 0.359375 0.625
vt 0.067528125 0.6875
vt 0.10102187500000001 0.6875
vt 0.10102187500000001 1
vt 0.067528125 1
vt 0.234375 0.6339343749999999
vt 0.217628125 0.6629406250000001
vt 0.171875 0.6171875
vt 0.376121875 0.5625
vt 0.405128125 0.5792468749999999
vt 0.359375 0.625
vt 0.000540624999999996 0.3671875
vt 0.034034375 0.3671875
vt 0.034034375 0.6796875
vt 0.000540624999999996 0.6796875
vt 0.217628125 0.6629406250000001
vt 0.188621875 0.6796875
vt 0.171875 0.6171875
vt 0.342628125 0.5625
vt 0.376121875 0.5625
vt 0.359375 0.625
vt 0.034034375 0.3671875
vt 0.067528125 0.3671875
vt 0.067528125 0.6796875
vt 0.034034375 0.6796875
vt 0.188621875 0.6796875
vt 0.155128125 0.6796875
vt 0.171875 0.6171875
vt 0.313621875 0.5792468749999999
vt 0.342628125 0.5625
vt 0.359375 0.625
vt 0.067528125 0.3671875
vt 0.10102187500000001 0.3671875
vt 0.10102187500000001 0.6796875
vt 0.067528125 0.6796875
vt 0.155128125 0.6796875
vt 0.126121875 0.6629406250000001
vt 0.171875 0.6171875
vt 0.296875 0.6082531250000001
vt 0.313621875 0.5792468749999999
vt 0.359375 0.625
vt 0.219290625 0.6875
vt 0.252784375 0.6875
vt 0.252784375 1
vt 0.219290625 1
vt 0.126121875 0.6629406250000001
vt 0.109375 0.6339343749999999
vt 0.171875 0.6171875
vt 0.296875 0.6417468749999999
vt 0.296875 0.6082531250000001
vt 0.359375 0.625
vt 0.252784375 0.6875
vt 0.286278125 0.6875
vt 0.286278125 1
vt 0.252784375 1
vt 0.109375 0.6339343749999999
vt 0.109375 0.6004406250000001
vt 0.171875 0.6171875
vt 0.313621875 0.6707531250000001
vt 0.296875 0.6417468749999999
vt 0.359375 0.625
vt 0.286278125 0.6875
vt 0.31977187500000004 0.6875
vt 0.31977187500000004 1
vt 0.286278125 1
vt 0.109375 0.6004406250000001
vt 0.126121875 0.5714343749999999
vt 0.171875 0.6171875
vt 0.342628125 0.6875
vt 0.313621875 0.6707531250000001
vt 0.359375 0.625
vt 0.10991562499999999 0.6875
vt 0.143409375 0.6875
vt 0.143409375 1
vt 0.10991562499999999 1
vt 0.126121875 0.5714343749999999
vt 0.155128125 0.5546875
vt 0.171875 0.6171875
vt 0.376121875 0.6875
vt 0.342628125 0.6875
vt 0.359375 0.625
vt 0.143409375 0.6875
vt 0.176903125 0.6875
vt 0.176903125 1
vt 0.143409375 1
vt 0.155128125 0.5546875
vt 0.188621875 0.5546875
vt 0.171875 0.6171875
vn 0 -1 0
vn 0.49999999999999983 0 0.8660254037844387
vn 0 1 0
vn 0 -1 0
vn 0.8660254037844388 0 0.5
vn 0 1 0
vn 0 -1 0
vn 1 0 0
vn 0 1 0
vn 0 -1 0
vn 0.8660254037844387 0 -0.49999999999999994
vn 0 1 0
vn 0 -1 0
vn 0.5000000000000001 0 -0.8660254037844386
vn 0 1 0
vn 0 -1 0
vn 4.143408735633879e-16 0 -1
vn 0 1 0
vn 0 -1 0
vn -0.4999999999999996 0 -0.8660254037844389
vn 0 1 0
vn 0 -1 0
vn -0.8660254037844388 0 -0.4999999999999998
vn 0 1 0
vn 0 -1 0
vn -1 0 -2.0717043678169412e-16
vn 0 1 0
vn 0 -1 0
vn -0.8660254037844389 0 0.4999999999999996
vn 0 1 0
vn 0 -1 0
vn -0.4999999999999999 0 0.8660254037844386
vn 0 1 0
vn 0 -1 0
vn 0 0 1
vn 0 1 0
usemtl m_a8c1d8b8-3d49-c4bd-52dd-688dda1ddd7b
f 71/241/67 69/242/67 67/243/67
f 69/244/68 71/245/68 72/246/68 70/247/68
f 70/248/69 72/249/69 68/250/69
f 73/251/70 71/252/70 67/253/70
f 71/254/71 73/255/71 74/256/71 72/257/71
f 72/258/72 74/259/72 68/260/72
f 75/261/73 73/262/73 67/263/73
f 73/264/74 75/265/74 76/266/74 74/267/74
f 74/268/75 76/269/75 68/270/75
f 77/271/76 75/272/76 67/273/76
f 75/274/77 77/275/77 78/276/77 76/277/77
f 76/278/78 78/279/78 68/280/78
f 79/281/79 77/282/79 67/283/79
f 77/284/80 79/285/80 80/286/80 78/287/80
f 78/288/81 80/289/81 68/290/81
f 81/291/82 79/292/82 67/293/82
f 79/294/83 81/295/83 82/296/83 80/297/83
f 80/298/84 82/299/84 68/300/84
f 83/301/85 81/302/85 67/303/85
f 81/304/86 83/305/86 84/306/86 82/307/86
f 82/308/87 84/309/87 68/310/87
f 85/311/88 83/312/88 67/313/88
f 83/314/89 85/315/89 86/316/89 84/317/89
f 84/318/90 86/319/90 68/320/90
f 87/321/91 85/322/91 67/323/91
f 85/324/92 87/325/92 88/326/92 86/327/92
f 86/328/93 88/329/93 68/330/93
f 89/331/94 87/332/94 67/333/94
f 87/334/95 89/335/95 90/336/95 88/337/95
f 88/338/96 90/339/96 68/340/96
f 91/341/97 89/342/97 67/343/97
f 89/344/98 91/345/98 92/346/98 90/347/98
f 90/348/99 92/349/99 68/350/99
f 69/351/100 91/352/100 67/353/100
f 91/354/101 69/355/101 70/356/101 92/357/101
f 92/358/102 70/359/102 68/360/102
o cube
v 0.75 3.4375 0.875
v 0.75 3.4375 0.375
v 0.75 3.0625 0.875
v 0.75 3.0625 0.375
v 0.375 3.4375 0.375
v 0.375 3.4375 0.875
v 0.375 3.0625 0.375
v 0.375 3.0625 0.875
vt 0.453125 0.8984375
vt 0.5 0.8984375
vt 0.5 0.8515625
vt 0.453125 0.8515625
vt 0.3984375 0.734375
vt 0.4609375 0.734375
vt 0.4609375 0.6875
vt 0.3984375 0.6875
vt 0.1484375 0.546875
vt 0.1953125 0.546875
vt 0.1953125 0.5
vt 0.1484375 0.5
vt 0.234375 0.578125
vt 0.296875 0.578125
vt 0.296875 0.53125
vt 0.234375 0.53125
vt 0.2421875 0.6796875
vt 0.2890625 0.6796875
vt 0.2890625 0.6171875
vt 0.2421875 0.6171875
vt 0.46875 0.5859375
vt 0.421875 0.5859375
vt 0.421875 0.5234375
vt 0.46875 0.5234375
vn 0 0 -1
vn 1 0 0
vn 0 0 1
vn -1 0 0
vn 0 1 0
vn 0 -1 0
usemtl m_a8c1d8b8-3d49-c4bd-52dd-688dda1ddd7b
f 96/364/103 99/363/103 97/362/103 94/361/103
f 95/368/104 96/367/104 94/366/104 93/365/104
f 100/372/105 95/371/105 93/370/105 98/369/105
f 99/376/106 100/375/106 98/374/106 97/373/106
f 98/380/107 93/379/107 94/378/107 97/377/107
f 99/384/108 96/383/108 95/382/108 100/381/108
o cube
v 0.75 3.125 0.375
v 0.75 3.125 0.0625
v 0.75 3.0625 0.375
v 0.75 3.0625 0.0625
v 0.1875 3.125 0.0625
v 0.1875 3.125 0.375
v 0.1875 3.0625 0.0625
v 0.1875 3.0625 0.375
vt 0.5234375 0.7734375
vt 0.59375 0.7734375
vt 0.59375 0.765625
vt 0.5234375 0.765625
vt 0.53125 0.765625
vt 0.5703125 0.765625
vt 0.5703125 0.7578125
vt 0.53125 0.7578125
vt 0.515625 0.765625
vt 0.5859375 0.765625
vt 0.5859375 0.7578125
vt 0.515625 0.7578125
vt 0.515625 0.7734375
vt 0.5546875 0.7734375
vt 0.5546875 0.765625
vt 0.515625 0.765625
vt 0.59375 0.7421875
vt 0.5234375 0.7421875
vt 0.5234375 0.78125
vt 0.59375 0.78125
vt 0.59375 0.78125
vt 0.5234375 0.78125
vt 0.5234375 0.7421875
vt 0.59375 0.7421875
vn 0 0 -1
vn 1 0 0
vn 0 0 1
vn -1 0 0
vn 0 1 0
vn 0 -1 0
usemtl m_a8c1d8b8-3d49-c4bd-52dd-688dda1ddd7b
f 104/388/109 107/387/109 105/386/109 102/385/109
f 103/392/110 104/391/110 102/390/110 101/389/110
f 108/396/111 103/395/111 101/394/111 106/393/111
f 107/400/112 108/399/112 106/398/112 105/397/112
f 106/404/113 101/403/113 102/402/113 105/401/113
f 107/408/114 104/407/114 103/406/114 108/405/114
o cube
v 0.625 2.3125 0.625
v 0.625 2.3125 0.375
v 0.625 1.625 0.625
v 0.625 1.625 0.375
v 0.375 2.3125 0.375
v 0.375 2.3125 0.625
v 0.375 1.625 0.375
v 0.375 1.625 0.625
vt 0.3046875 0.5546875
vt 0.3359375 0.5546875
vt 0.3359375 0.46875
vt 0.3046875 0.46875
vt 0.34375 0.5546875
vt 0.375 0.5546875
vt 0.375 0.46875
vt 0.34375 0.46875
vt 0.3828125 0.5546875
vt 0.4140625 0.5546875
vt 0.4140625 0.46875
vt 0.3828125 0.46875
vt 0.109375 0.546875
vt 0.140625 0.546875
vt 0.140625 0.4609375
vt 0.109375 0.4609375
vt 0.1796875 0.4609375
vt 0.1484375 0.4609375
vt 0.1484375 0.4921875
vt 0.1796875 0.4921875
vt 0.5390625 0.6875
vt 0.5078125 0.6875
vt 0.5078125 0.65625
vt 0.5390625 0.65625
vn 0 0 -1
vn 1 0 0
vn 0 0 1
vn -1 0 0
vn 0 1 0
vn 0 -1 0
usemtl m_a8c1d8b8-3d49-c4bd-52dd-688dda1ddd7b
f 112/412/115 115/411/115 113/410/115 110/409/115
f 111/416/116 112/415/116 110/414/116 109/413/116
f 116/420/117 111/419/117 109/418/117 114/417/117
f 115/424/118 116/423/118 114/422/118 113/421/118
f 114/428/119 109/427/119 110/426/119 113/425/119
f 115/432/120 112/431/120 111/430/120 116/429/120
o cube
v 0.5625 3.5 0.5625
v 0.5625 3.5 0.4375
v 0.5625 2.875 0.5625
v 0.5625 2.875 0.4375
v 0.4375 3.5 0.4375
v 0.4375 3.5 0.5625
v 0.4375 2.875 0.4375
v 0.4375 2.875 0.5625
vt 0.421875 0.515625
vt 0.4375 0.515625
vt 0.4375 0.4375
vt 0.421875 0.4375
vt 0.421875 0.515625
vt 0.4375 0.515625
vt 0.4375 0.4375
vt 0.421875 0.4375
vt 0.4453125 0.515625
vt 0.4609375 0.515625
vt 0.4609375 0.4375
vt 0.4453125 0.4375
vt 0.421875 0.515625
vt 0.4375 0.515625
vt 0.4375 0.4375
vt 0.421875 0.4375
vt 0.453125 0.4921875
vt 0.4375 0.4921875
vt 0.4375 0.5078125
vt 0.453125 0.5078125
vt 0.4453125 0.4921875
vt 0.4296875 0.4921875
vt 0.4296875 0.4765625
vt 0.4453125 0.4765625
vn 0 0 -1
vn 1 0 0
vn 0 0 1
vn -1 0 0
vn 0 1 0
vn 0 -1 0
usemtl m_a8c1d8b8-3d49-c4bd-52dd-688dda1ddd7b
f 120/436/121 123/435/121 121/434/121 118/433/121
f 119/440/122 120/439/122 118/438/122 117/437/122
f 124/444/123 119/443/123 117/442/123 122/441/123
f 123/448/124 124/447/124 122/446/124 121/445/124
f 122/452/125 117/451/125 118/450/125 121/449/125
f 123/456/126 120/455/126 119/454/126 124/453/126
o cube
v 0.6875 3.25 0.375
v 0.6875 3.25 0.125
v 0.6875 3.125 0.375
v 0.6875 3.125 0.125
v 0.5625 3.25 0.125
v 0.5625 3.25 0.375
v 0.5625 3.125 0.125
v 0.5625 3.125 0.375
vt 0.4375 0.4921875
vt 0.453125 0.4921875
vt 0.453125 0.4765625
vt 0.4375 0.4765625
vt 0.4296875 0.5
vt 0.4609375 0.5
vt 0.4609375 0.484375
vt 0.4296875 0.484375
vt 0.5078125 0.4609375
vt 0.5234375 0.4609375
vt 0.5234375 0.4453125
vt 0.5078125 0.4453125
vt 0.4296875 0.5
vt 0.4609375 0.5
vt 0.4609375 0.484375
vt 0.4296875 0.484375
vt 0.4375 0.46875
vt 0.421875 0.46875
vt 0.421875 0.5
vt 0.4375 0.5
vt 0.484375 0.7265625
vt 0.46875 0.7265625
vt 0.46875 0.6953125
vt 0.484375 0.6953125
vn 0 0 -1
vn 1 0 0
vn 0 0 1
vn -1 0 0
vn 0 1 0
vn 0 -1 0
usemtl m_a8c1d8b8-3d49-c4bd-52dd-688dda1ddd7b
f 128/460/127 131/459/127 129/458/127 126/457/127
f 127/464/128 128/463/128 126/462/128 125/461/128
f 132/468/129 127/467/129 125/466/129 130/465/129
f 131/472/130 132/471/130 130/470/130 129/469/130
f 130/476/131 125/475/131 126/474/131 129/473/131
f 131/480/132 128/479/132 127/478/132 132/477/132
o cube
v 0.5625 3.3125 0.25
v 0.5625 3.3125 0.0625
v 0.5625 3.125 0.25
v 0.5625 3.125 0.0625
v 0.25 3.3125 0.0625
v 0.25 3.3125 0.25
v 0.25 3.125 0.0625
v 0.25 3.125 0.25
vt 0.2421875 0.609375
vt 0.28125 0.609375
vt 0.28125 0.5859375
vt 0.2421875 0.5859375
vt 0.2421875 0.609375
vt 0.28125 0.609375
vt 0.28125 0.5859375
vt 0.2421875 0.5859375
vt 0.2421875 0.609375
vt 0.28125 0.609375
vt 0.28125 0.5859375
vt 0.2421875 0.5859375
vt 0.2421875 0.609375
vt 0.28125 0.609375
vt 0.28125 0.5859375
vt 0.2421875 0.5859375
vt 0.28125 0.5859375
vt 0.2421875 0.5859375
vt 0.2421875 0.609375
vt 0.28125 0.609375
vt 0.28125 0.609375
vt 0.2421875 0.609375
vt 0.2421875 0.5859375
vt 0.28125 0.5859375
vn 0 0 -1
vn 1 0 0
vn 0 0 1
vn -1 0 0
vn 0 1 0
vn 0 -1 0
usemtl m_a8c1d8b8-3d49-c4bd-52dd-688dda1ddd7b
f 136/484/133 139/483/133 137/482/133 134/481/133
f 135/488/134 136/487/134 134/486/134 133/485/134
f 140/492/135 135/491/135 133/490/135 138/489/135
f 139/496/136 140/495/136 138/494/136 137/493/136
f 138/500/137 133/499/137 134/498/137 137/497/137
f 139/504/138 136/503/138 135/502/138 140/501/138