# Made in Blockbench 5.1.5
mtllib plc_module_mirrored.mtl

o cube
v 0.6875 2.6875 0.8125
v 0.6875 2.6875 0.4375
v 0.6875 2 0.8125
v 0.6875 2 0.4375
v 0.5625 2.6875 0.4375
v 0.5625 2.6875 0.8125
v 0.5625 2 0.4375
v 0.5625 2 0.8125
vt 0.578125 0.3125
vt 0.59375 0.3125
vt 0.59375 0.2265625
vt 0.578125 0.2265625
vt 0.5 0.78125
vt 0.546875 0.78125
vt 0.546875 0.6953125
vt 0.5 0.6953125
vt 0.59375 0.3125
vt 0.609375 0.3125
vt 0.609375 0.2265625
vt 0.59375 0.2265625
vt 0.546875 0.78125
vt 0.59375 0.78125
vt 0.59375 0.6953125
vt 0.546875 0.6953125
vt 0.625 0.265625
vt 0.609375 0.265625
vt 0.609375 0.3125
vt 0.625 0.3125
vt 0.640625 0.3125
vt 0.625 0.3125
vt 0.625 0.265625
vt 0.640625 0.265625
vn 0 0 -1
vn 1 0 0
vn 0 0 1
vn -1 0 0
vn 0 1 0
vn 0 -1 0
usemtl m_b5178e90-ee5f-e338-53d4-428081036828
f 4/4/1 7/3/1 5/2/1 2/1/1
f 3/8/2 4/7/2 2/6/2 1/5/2
f 8/12/3 3/11/3 1/10/3 6/9/3
f 7/16/4 8/15/4 6/14/4 5/13/4
f 6/20/5 1/19/5 2/18/5 5/17/5
f 7/24/6 4/23/6 3/22/6 8/21/6