# Made in Blockbench 4.8.3
mtllib fbr_mirrored.mtl

o tube
v 0.09807621135331601 0.03125 0
v 0.09807621135331601 2.96875 0
v 0.11739152432780187 0.03125 0.07208572938487556
v 0.11739152432780187 2.96875 0.07208572938487556
v -0.5980762113533158 0.03125 0.401923788646684
v -0.5980762113533158 2.96875 0.401923788646684
v -0.5453057949429261 0.03125 0.4546942050570737
v -0.5453057949429261 2.96875 0.4546942050570737
v -1 0.03125 1.098076211353316
v -1 2.96875 1.098076211353316
v -0.9279142706151244 0.03125 1.1173915243278019
v -0.9279142706151244 2.96875 1.1173915243278019
v -1 0.03125 1.9019237886466842
v -1 2.96875 1.9019237886466842
v -0.9279142706151244 0.03125 1.8826084756721984
v -0.9279142706151244 2.96875 1.8826084756721984
v -0.598076211353316 0.03125 2.598076211353316
v -0.598076211353316 2.96875 2.598076211353316
v -0.5453057949429263 0.03125 2.545305794942926
v -0.5453057949429263 2.96875 2.545305794942926
v 0.09807621135331557 0.03125 3
v 0.09807621135331557 2.96875 3
v 0.11739152432780148 0.03125 2.9279142706151244
v 0.11739152432780148 2.96875 2.9279142706151244
v 0.9019237886466833 0.03125 3
v 0.9019237886466833 2.96875 3
v 0.8826084756721976 0.03125 2.9279142706151244
v 0.8826084756721976 2.96875 2.9279142706151244
v 1.5980762113533158 0.03125 2.598076211353316
v 1.5980762113533158 2.96875 2.598076211353316
v 1.545305794942926 0.03125 2.5453057949429265
v 1.545305794942926 2.96875 2.5453057949429265
v 2 0.03125 1.9019237886466838
v 2 2.96875 1.9019237886466838
v 1.9279142706151244 0.03125 1.882608475672198
v 1.9279142706151244 2.96875 1.882608475672198
v 2 0.03125 1.0980762113533167
v 2 2.96875 1.0980762113533167
v 1.9279142706151244 0.03125 1.1173915243278025
v 1.9279142706151244 2.96875 1.1173915243278025
v 1.598076211353316 0.03125 0.40192378864668443
v 1.598076211353316 2.96875 0.40192378864668443
v 1.5453057949429263 0.03125 0.45469420505707414
v 1.5453057949429263 2.96875 0.45469420505707414
v 0.9019237886466839 0.03125 0
v 0.9019237886466839 2.96875 0
v 0.882608475672198 0.03125 0.07208572938487556
v 0.882608475672198 2.96875 0.07208572938487556
vt 0.5661359375 0.6796875
vt 0.6163765625 0.6796875
vt 0.6163765625 0.86328125
vt 0.5661359375 0.86328125
vt 0.353040234375 0.50390625
vt 0.305214453125 0.50390625
vt 0.305214453125 0.3203125
vt 0.353040234375 0.3203125
vt 0.11766289062500002 0.99549453125
vt 0.15908164062500002 0.971581640625
vt 0.1623796875 0.9748796875
vt 0.11887031250000002 1
vt 0.2594953125 0.66796875
vt 0.3030046875 0.6930890625
vt 0.29970664062499996 0.696387109375
vt 0.258287890625 0.67247421875
vt 0.0008109374999999974 0.51953125
vt 0.0510515625 0.51953125
vt 0.0510515625 0.703125
vt 0.0008109374999999974 0.703125
vt 0.300254296875 0.6640625
vt 0.252428515625 0.6640625
vt 0.252428515625 0.48046875
vt 0.300254296875 0.48046875
vt 0.15908164062500002 0.971581640625
vt 0.18299453125 0.930162890625
vt 0.1875 0.9313703125
vt 0.1623796875 0.9748796875
vt 0.3030046875 0.6930890625
vt 0.328125 0.7365984375
vt 0.32361953125 0.737805859375
vt 0.29970664062499996 0.696387109375
vt 0.0510515625 0.51953125
vt 0.10129218749999999 0.51953125
vt 0.10129218749999999 0.703125
vt 0.0510515625 0.703125
vt 0.252428515625 0.6640625
vt 0.20460273437499998 0.6640625
vt 0.20460273437499998 0.48046875
vt 0.252428515625 0.48046875
vt 0.18299453125 0.930162890625
vt 0.18299453124999998 0.882337109375
vt 0.1875 0.8811296875
vt 0.1875 0.9313703125
vt 0.328125 0.7365984375
vt 0.32812499999999994 0.7868390625
vt 0.32361953125 0.785631640625
vt 0.32361953125 0.737805859375
vt 0.10129218749999999 0.51953125
vt 0.1515328125 0.51953125
vt 0.1515328125 0.703125
vt 0.10129218749999999 0.703125
vt 0.20460273437499998 0.6640625
vt 0.156776953125 0.6640625
vt 0.156776953125 0.48046875
vt 0.20460273437499998 0.48046875
vt 0.18299453124999998 0.882337109375
vt 0.15908164062500002 0.840918359375
vt 0.1623796875 0.8376203125
vt 0.1875 0.8811296875
vt 0.32812499999999994 0.7868390625
vt 0.3030046874999999 0.8303484375
vt 0.29970664062499996 0.827050390625
vt 0.32361953125 0.785631640625
vt 0.4656546875 0.4921875
vt 0.5158953125 0.4921875
vt 0.5158953125 0.67578125
vt 0.4656546875 0.67578125
vt 0.5971292968749999 0.48828125
vt 0.549303515625 0.48828125
vt 0.549303515625 0.3046875
vt 0.5971292968749999 0.3046875
vt 0.15908164062500002 0.840918359375
vt 0.11766289062500002 0.81700546875
vt 0.11887031250000002 0.8125
vt 0.1623796875 0.8376203125
vt 0.3030046874999999 0.8303484375
vt 0.2594953124999999 0.85546875
vt 0.2582878906249999 0.85096328125
vt 0.29970664062499996 0.827050390625
vt 0.5158953125 0.4921875
vt 0.5661359375 0.4921875
vt 0.5661359375 0.67578125
vt 0.5158953125 0.67578125
vt 0.549303515625 0.48828125
vt 0.501477734375 0.48828125
vt 0.501477734375 0.3046875
vt 0.549303515625 0.3046875
vt 0.11766289062500002 0.81700546875
vt 0.06983710937500001 0.81700546875
vt 0.06862968750000002 0.8125
vt 0.11887031250000002 0.8125
vt 0.2594953124999999 0.85546875
vt 0.20925468749999993 0.85546875
vt 0.21046210937499993 0.8509632812499999
vt 0.2582878906249999 0.85096328125
vt 0.5661359375 0.4921875
vt 0.6163765625 0.4921875
vt 0.6163765625 0.67578125
vt 0.5661359375 0.67578125
vt 0.501477734375 0.48828125
vt 0.453651953125 0.48828125
vt 0.453651953125 0.3046875
vt 0.501477734375 0.3046875
vt 0.069837109375 0.81700546875
vt 0.028418359374999994 0.840918359375
vt 0.025120312500000005 0.8376203125
vt 0.06862968750000001 0.8125
vt 0.20925468750000006 0.85546875
vt 0.16574531250000007 0.8303484375
vt 0.16904335937500004 0.827050390625
vt 0.21046210937500004 0.85096328125
vt 0.3094046875 0.5078125
vt 0.3596453125 0.5078125
vt 0.3596453125 0.69140625
vt 0.3094046875 0.69140625
vt 0.144004296875 0.515625
vt 0.096178515625 0.515625
vt 0.096178515625 0.33203125
vt 0.144004296875 0.33203125
vt 0.028418359374999994 0.840918359375
vt 0.004505468750000033 0.8823371093750001
vt 2.7755575615628914e-17 0.8811296875000001
vt 0.025120312500000005 0.8376203125
vt 0.16574531250000007 0.8303484375
vt 0.14062500000000003 0.7868390625
vt 0.14513046875000002 0.785631640625
vt 0.16904335937500004 0.827050390625
vt 0.3596453125 0.5078125
vt 0.4098859375 0.5078125
vt 0.4098859375 0.69140625
vt 0.3596453125 0.69140625
vt 0.096178515625 0.515625
vt 0.048352734375 0.515625
vt 0.048352734375 0.33203125
vt 0.096178515625 0.33203125
vt 0.004505468750000033 0.8823371093750001
vt 0.004505468750000005 0.930162890625
vt 0 0.9313703125
vt 2.7755575615628914e-17 0.8811296875000001
vt 0.14062500000000003 0.7868390625
vt 0.140625 0.7365984375
vt 0.14513046875000002 0.737805859375
vt 0.14513046875000002 0.785631640625
vt 0.4098859375 0.5078125
vt 0.4601265625 0.5078125
vt 0.4601265625 0.69140625
vt 0.4098859375 0.69140625
vt 0.048352734375 0.515625
vt 0.000526953125000007 0.515625
vt 0.000526953125000007 0.33203125
vt 0.048352734375 0.33203125
vt 0.004505468750000005 0.930162890625
vt 0.028418359374999994 0.9715816406250001
vt 0.025120312500000005 0.9748796875
vt 0 0.9313703125
vt 0.140625 0.7365984375
vt 0.16574531250000002 0.6930890625
vt 0.16904335937499998 0.696387109375
vt 0.14513046875000002 0.737805859375
vt 0.4656546875 0.6796875
vt 0.5158953125 0.6796875
vt 0.5158953125 0.86328125
vt 0.4656546875 0.86328125
vt 0.448691796875 0.50390625
vt 0.400866015625 0.50390625
vt 0.400866015625 0.3203125
vt 0.448691796875 0.3203125
vt 0.028418359374999994 0.9715816406250001
vt 0.06983710937500001 0.99549453125
vt 0.06862968750000002 1
vt 0.025120312500000005 0.9748796875
vt 0.16574531250000002 0.6930890625
vt 0.20925468749999998 0.66796875
vt 0.21046210937499998 0.67247421875
vt 0.16904335937499998 0.696387109375
vt 0.5158953125 0.6796875
vt 0.5661359375 0.6796875
vt 0.5661359375 0.86328125
vt 0.5158953125 0.86328125
vt 0.400866015625 0.50390625
vt 0.353040234375 0.50390625
vt 0.353040234375 0.3203125
vt 0.400866015625 0.3203125
vt 0.06983710937500001 0.99549453125
vt 0.11766289062500002 0.99549453125
vt 0.11887031250000002 1
vt 0.06862968750000002 1
vt 0.20925468749999998 0.66796875
vt 0.2594953125 0.66796875
vt 0.258287890625 0.67247421875
vt 0.21046210937499998 0.67247421875
vn -0.5 0 -0.8660254037844388
vn 0.4999999999999999 0 0.8660254037844386
vn 0 -1 0
vn 0 1 0
vn -0.8660254037844387 0 -0.5000000000000001
vn 0.8660254037844388 0 0.5000000000000001
vn 0 -1 0
vn 0 1 0
vn -1 0 0
vn 1 0 0
vn 0 -1 0
vn 0 1 0
vn -0.8660254037844386 0 0.5000000000000001
vn 0.8660254037844387 0 -0.5000000000000001
vn 0 -1 0
vn 0 1 0
vn -0.5000000000000001 0 0.8660254037844386
vn 0.5000000000000001 0 -0.8660254037844387
vn 0 -1 0
vn 0 1 0
vn -2.7622724904225857e-16 0 1
vn 2.901720937244334e-16 0 -1
vn 0 -1 0
vn 0 1 0
vn 0.4999999999999996 0 0.8660254037844389
vn -0.4999999999999996 0 -0.8660254037844388
vn 0 -1 0
vn 0 1 0
vn 0.8660254037844387 0 0.5
vn -0.8660254037844387 0 -0.4999999999999999
vn 0 -1 0
vn 0 1 0
vn 1 0 0
vn -1 0 0
vn 0 -1 0
vn 0 1 0
vn 0.8660254037844388 0 -0.49999999999999983
vn -0.8660254037844388 0 0.4999999999999997
vn 0 -1 0
vn 0 1 0
vn 0.5000000000000003 0 -0.8660254037844387
vn -0.5000000000000003 0 0.8660254037844387
vn 0 -1 0
vn 0 1 0
vn 0 0 -1
vn 0 0 1
vn 0 -1 0
vn 0 1 0
usemtl m_f59ca7b3-9415-c491-6645-7c72e57e7098
f 1/1/1 5/2/1 6/3/1 2/4/1
f 4/5/2 8/6/2 7/7/2 3/8/2
f 3/9/3 7/10/3 5/11/3 1/12/3
f 2/13/4 6/14/4 8/15/4 4/16/4
f 5/17/5 9/18/5 10/19/5 6/20/5
f 8/21/6 12/22/6 11/23/6 7/24/6
f 7/25/7 11/26/7 9/27/7 5/28/7
f 6/29/8 10/30/8 12/31/8 8/32/8
f 9/33/9 13/34/9 14/35/9 10/36/9
f 12/37/10 16/38/10 15/39/10 11/40/10
f 11/41/11 15/42/11 13/43/11 9/44/11
f 10/45/12 14/46/12 16/47/12 12/48/12
f 13/49/13 17/50/13 18/51/13 14/52/13
f 16/53/14 20/54/14 19/55/14 15/56/14
f 15/57/15 19/58/15 17/59/15 13/60/15
f 14/61/16 18/62/16 20/63/16 16/64/16
f 17/65/17 21/66/17 22/67/17 18/68/17
f 20/69/18 24/70/18 23/71/18 19/72/18
f 19/73/19 23/74/19 21/75/19 17/76/19
f 18/77/20 22/78/20 24/79/20 20/80/20
f 21/81/21 25/82/21 26/83/21 22/84/21
f 24/85/22 28/86/22 27/87/22 23/88/22
f 23/89/23 27/90/23 25/91/23 21/92/23
f 22/93/24 26/94/24 28/95/24 24/96/24
f 25/97/25 29/98/25 30/99/25 26/100/25
f 28/101/26 32/102/26 31/103/26 27/104/26
f 27/105/27 31/106/27 29/107/27 25/108/27
f 26/109/28 30/110/28 32/111/28 28/112/28
f 29/113/29 33/114/29 34/115/29 30/116/29
f 32/117/30 36/118/30 35/119/30 31/120/30
f 31/121/31 35/122/31 33/123/31 29/124/31
f 30/125/32 34/126/32 36/127/32 32/128/32
f 33/129/33 37/130/33 38/131/33 34/132/33
f 36/133/34 40/134/34 39/135/34 35/136/34
f 35/137/35 39/138/35 37/139/35 33/140/35
f 34/141/36 38/142/36 40/143/36 36/144/36
f 37/145/37 41/146/37 42/147/37 38/148/37
f 40/149/38 44/150/38 43/151/38 39/152/38
f 39/153/39 43/154/39 41/155/39 37/156/39
f 38/157/40 42/158/40 44/159/40 40/160/40
f 41/161/41 45/162/41 46/163/41 42/164/41
f 44/165/42 48/166/42 47/167/42 43/168/42
f 43/169/43 47/170/43 45/171/43 41/172/43
f 42/173/44 46/174/44 48/175/44 44/176/44
f 45/177/45 1/178/45 2/179/45 46/180/45
f 48/181/46 4/182/46 3/183/46 47/184/46
f 47/185/47 3/186/47 1/187/47 45/188/47
f 46/189/48 2/190/48 4/191/48 48/192/48
o cube
v 2 0.0625 3
v 2 0.0625 0
v 2 0 3
v 2 0 0
v -1 0.0625 0
v -1 0.0625 3
v -1 0 0
v -1 0 3
vt 0.40625 0.90625
vt 0.78125 0.90625
vt 0.78125 0.8984375
vt 0.40625 0.8984375
vt 0.40625 0.8984375
vt 0.78125 0.8984375
vt 0.78125 0.890625
vt 0.40625 0.890625
vt 0.40625 0.921875
vt 0.78125 0.921875
vt 0.78125 0.9140625
vt 0.40625 0.9140625
vt 0.40625 0.9140625
vt 0.78125 0.9140625
vt 0.78125 0.90625
vt 0.40625 0.90625
vt 0 1
vt 0.375 1
vt 0.375 0.625
vt 0 0.625
vt 0 0.25
vt 0.375 0.25
vt 0.375 0.625
vt 0 0.625
vn 0 0 -1
vn 1 0 0
vn 0 0 1
vn -1 0 0
vn 0 1 0
vn 0 -1 0
usemtl m_1e237f2c-ce46-43b3-876b-56e5ae76fba3
f 52/196/49 55/195/49 53/194/49 50/193/49
f 51/200/50 52/199/50 50/198/50 49/197/50
f 56/204/51 51/203/51 49/202/51 54/201/51
f 55/208/52 56/207/52 54/206/52 53/205/52
f 54/212/53 49/211/53 50/210/53 53/209/53
f 55/216/54 52/215/54 51/214/54 56/213/54
o circle
v 0.5 2.921875 1.5
v 0.09807621135331601 2.921875 0
v -0.5980762113533158 2.921875 0.401923788646684
v -1 2.921875 1.098076211353316
v -1 2.921875 1.9019237886466842
v -0.598076211353316 2.921875 2.598076211353316
v 0.09807621135331557 2.921875 3
v 0.9019237886466834 2.921875 3
v 1.5980762113533158 2.921875 2.598076211353316
v 2 2.921875 1.9019237886466838
v 2 2.921875 1.0980762113533167
v 1.598076211353316 2.921875 0.40192378864668443
v 0.9019237886466839 2.921875 0
vt 0.4436296875 0.8376203125
vt 0.46875 0.8811296875
vt 0.375 0.90625
vt 0.46875 0.8811296875
vt 0.46875 0.9313703125
vt 0.375 0.90625
vt 0.46875 0.9313703125
vt 0.4436296875 0.9748796875
vt 0.375 0.90625
vt 0.4436296875 0.9748796875
vt 0.4001203125 1
vt 0.375 0.90625
vt 0.4001203125 1
vt 0.3498796875 1
vt 0.375 0.90625
vt 0.3498796875 1
vt 0.3063703125 0.9748796875
vt 0.375 0.90625
vt 0.3063703125 0.9748796875
vt 0.28125 0.9313703125
vt 0.375 0.90625
vt 0.28125 0.9313703125
vt 0.28125 0.8811296875
vt 0.375 0.90625
vt 0.28125 0.8811296875
vt 0.3063703125 0.8376203125
vt 0.375 0.90625
vt 0.3063703125 0.8376203125
vt 0.3498796875 0.8125
vt 0.375 0.90625
vt 0.3498796875 0.8125
vt 0.4001203125 0.8125
vt 0.375 0.90625
vt 0.4001203125 0.8125
vt 0.4436296875 0.8376203125
vt 0.375 0.90625
vn 0 1 0
vn 0 1 0
vn 0 1 0
vn 0 1 0
vn 0 1 0
vn 0 1 0
vn 0 1 0
vn 0 1 0
vn 0 1 0
vn 0 1 0
vn 0 1 0
vn 0 1 0
usemtl m_f59ca7b3-9415-c491-6645-7c72e57e7098
f 59/217/55 60/218/55 57/219/55
f 60/220/56 61/221/56 57/222/56
f 61/223/57 62/224/57 57/225/57
f 62/226/58 63/227/58 57/228/58
f 63/229/59 64/230/59 57/231/59
f 64/232/60 65/233/60 57/234/60
f 65/235/61 66/236/61 57/237/61
f 66/238/62 67/239/62 57/240/62
f 67/241/63 68/242/63 57/243/63
f 68/244/64 69/245/64 57/246/64
f 69/247/65 58/248/65 57/249/65
f 58/250/66 59/251/66 57/252/66
o cube
v 1.2926237822087165 3.1875 2.360485434560398
v 1.381012129857035 3.1875 2.27209708691208
v 1.2926237822087165 2.875 2.360485434560398
v 1.381012129857035 2.875 2.27209708691208
v 1.2926237822087165 3.1875 2.183708739263761
v 1.204235434560398 3.1875 2.27209708691208
v 1.2926237822087165 2.875 2.183708739263761
v 1.204235434560398 2.875 2.27209708691208
vt 0.453125 0.890625
vt 0.46875 0.890625
vt 0.46875 0.8515625
vt 0.453125 0.8515625
vt 0.453125 0.8515625
vt 0.46875 0.8515625
vt 0.46875 0.8125
vt 0.453125 0.8125
vt 0.4375 0.59375
vt 0.453125 0.59375
vt 0.453125 0.5546875
vt 0.4375 0.5546875
vt 0.4375 0.5546875
vt 0.453125 0.5546875
vt 0.453125 0.515625
vt 0.4375 0.515625
vt 0.453125 0.546875
vt 0.46875 0.546875
vt 0.46875 0.53125
vt 0.453125 0.53125
vt 0.4609375 0.578125
vt 0.4765625 0.578125
vt 0.4765625 0.59375
vt 0.4609375 0.59375
vn 0.7071067811865476 0 -0.7071067811865475
vn 0.7071067811865475 0 0.7071067811865476
vn -0.7071067811865476 0 0.7071067811865475
vn -0.7071067811865475 0 -0.7071067811865476
vn 0 1 0
vn 0 -1 0
usemtl m_1e237f2c-ce46-43b3-876b-56e5ae76fba3
f 73/256/67 76/255/67 74/254/67 71/253/67
f 72/260/68 73/259/68 71/258/68 70/257/68
f 77/264/69 72/263/69 70/262/69 75/261/69
f 76/268/70 77/267/70 75/266/70 74/265/70
f 75/272/71 70/271/71 71/270/71 74/269/71
f 76/276/72 73/275/72 72/274/72 77/273/72
o cube
v 1.7787596942744681 3.1875 2.8466213466261494
v 1.8671480419227864 3.1875 2.758232998977831
v 1.7787596942744681 3.0625 2.8466213466261494
v 1.8671480419227864 3.0625 2.758232998977831
v 1.381012129857035 3.1875 2.27209708691208
v 1.2926237822087165 3.1875 2.360485434560398
v 1.381012129857035 3.0625 2.27209708691208
v 1.2926237822087165 3.0625 2.360485434560398
vt 0.40625 0.78125
vt 0.4921875 0.78125
vt 0.4921875 0.765625
vt 0.40625 0.765625
vt 0.4609375 0.5625
vt 0.4765625 0.5625
vt 0.4765625 0.546875
vt 0.4609375 0.546875
vt 0.40625 0.796875
vt 0.4921875 0.796875
vt 0.4921875 0.78125
vt 0.40625 0.78125
vt 0.4609375 0.578125
vt 0.4765625 0.578125
vt 0.4765625 0.5625
vt 0.4609375 0.5625
vt 0.40625 0.765625
vt 0.4921875 0.765625
vt 0.4921875 0.75
vt 0.40625 0.75
vt 0.40625 0.734375
vt 0.4921875 0.734375
vt 0.4921875 0.75
vt 0.40625 0.75
vn 0.7071067811865476 0 -0.7071067811865475
vn 0.7071067811865475 0 0.7071067811865476
vn -0.7071067811865476 0 0.7071067811865475
vn -0.7071067811865475 0 -0.7071067811865476
vn 0 1 0
vn 0 -1 0
usemtl m_1e237f2c-ce46-43b3-876b-56e5ae76fba3
f 81/280/73 84/279/73 82/278/73 79/277/73
f 80/284/74 81/283/74 79/282/74 78/281/74
f 85/288/75 80/287/75 78/286/75 83/285/75
f 84/292/76 85/291/76 83/290/76 82/289/76
f 83/296/77 78/295/77 79/294/77 82/293/77
f 84/300/78 81/299/78 80/298/78 85/297/78
o cube
v 1.8671480419227864 3.1875 2.935009694274468
v 1.9555363895711046 3.1875 2.8466213466261494
v 1.8671480419227864 0.1875 2.935009694274468
v 1.9555363895711046 0.1875 2.8466213466261494
v 1.8671480419227864 3.1875 2.758232998977831
v 1.7787596942744681 3.1875 2.8466213466261494
v 1.8671480419227864 0.1875 2.758232998977831
v 1.7787596942744681 0.1875 2.8466213466261494
vt 0.390625 1
vt 0.40625 1
vt 0.40625 0.625
vt 0.390625 0.625
vt 0.390625 0.625
vt 0.40625 0.625
vt 0.40625 0.25
vt 0.390625 0.25
vt 0.375 1
vt 0.390625 1
vt 0.390625 0.625
vt 0.375 0.625
vt 0.375 0.625
vt 0.390625 0.625
vt 0.390625 0.25
vt 0.375 0.25
vt 0.46875 0.890625
vt 0.484375 0.890625
vt 0.484375 0.875
vt 0.46875 0.875
vt 0.46875 0.859375
vt 0.484375 0.859375
vt 0.484375 0.875
vt 0.46875 0.875
vn 0.7071067811865476 0 -0.7071067811865475
vn 0.7071067811865475 0 0.7071067811865476
vn -0.7071067811865476 0 0.7071067811865475
vn -0.7071067811865475 0 -0.7071067811865476
vn 0 1 0
vn 0 -1 0
usemtl m_1e237f2c-ce46-43b3-876b-56e5ae76fba3
f 89/304/79 92/303/79 90/302/79 87/301/79
f 88/308/80 89/307/80 87/306/80 86/305/80
f 93/312/81 88/311/81 86/310/81 91/309/81
f 92/316/82 93/315/82 91/314/82 90/313/82
f 91/320/83 86/319/83 87/318/83 90/317/83
f 92/324/84 89/323/84 88/322/84 93/321/84
o cube
v 1.7787596942744681 0.3125 2.8466213466261494
v 1.8671480419227864 0.3125 2.758232998977831
v 1.7787596942744681 0.1875 2.8466213466261494
v 1.8671480419227864 0.1875 2.758232998977831
v 1.381012129857035 0.3125 2.27209708691208
v 1.2926237822087165 0.3125 2.360485434560398
v 1.381012129857035 0.1875 2.27209708691208
v 1.2926237822087165 0.1875 2.360485434560398
vt 0.40625 0.71875
vt 0.4921875 0.71875
vt 0.4921875 0.703125
vt 0.40625 0.703125
vt 0.46875 0.84375
vt 0.484375 0.84375
vt 0.484375 0.828125
vt 0.46875 0.828125
vt 0.40625 0.734375
vt 0.4921875 0.734375
vt 0.4921875 0.71875
vt 0.40625 0.71875
vt 0.46875 0.859375
vt 0.484375 0.859375
vt 0.484375 0.84375
vt 0.46875 0.84375
vt 0.40625 0.703125
vt 0.4921875 0.703125
vt 0.4921875 0.6875
vt 0.40625 0.6875
vt 0.40625 0.671875
vt 0.4921875 0.671875
vt 0.4921875 0.6875
vt 0.40625 0.6875
vn 0.7071067811865476 0 -0.7071067811865475
vn 0.7071067811865475 0 0.7071067811865476
vn -0.7071067811865476 0 0.7071067811865475
vn -0.7071067811865475 0 -0.7071067811865476
vn 0 1 0
vn 0 -1 0
usemtl m_1e237f2c-ce46-43b3-876b-56e5ae76fba3
f 97/328/85 100/327/85 98/326/85 95/325/85
f 96/332/86 97/331/86 95/330/86 94/329/86
f 101/336/87 96/335/87 94/334/87 99/333/87
f 100/340/88 101/339/88 99/338/88 98/337/88
f 99/344/89 94/343/89 95/342/89 98/341/89
f 100/348/90 97/347/90 96/346/90 101/345/90
o cube
v 1.7787596942744681 1.3125 2.8466213466261494
v 1.8671480419227864 1.3125 2.758232998977831
v 1.7787596942744681 1.1875 2.8466213466261494
v 1.8671480419227864 1.1875 2.758232998977831
v 1.381012129857035 1.3125 2.27209708691208
v 1.2926237822087165 1.3125 2.360485434560398
v 1.381012129857035 1.1875 2.27209708691208
v 1.2926237822087165 1.1875 2.360485434560398
vt 0.40625 0.65625
vt 0.4921875 0.65625
vt 0.4921875 0.640625
vt 0.40625 0.640625
vt 0.453125 0.53125
vt 0.46875 0.53125
vt 0.46875 0.515625
vt 0.453125 0.515625
vt 0.40625 0.671875
vt 0.4921875 0.671875
vt 0.4921875 0.65625
vt 0.40625 0.65625
vt 0.46875 0.828125
vt 0.484375 0.828125
vt 0.484375 0.8125
vt 0.46875 0.8125
vt 0.40625 0.640625
vt 0.4921875 0.640625
vt 0.4921875 0.625
vt 0.40625 0.625
vt 0.40625 0.609375
vt 0.4921875 0.609375
vt 0.4921875 0.625
vt 0.40625 0.625
vn 0.7071067811865476 0 -0.7071067811865475
vn 0.7071067811865475 0 0.7071067811865476
vn -0.7071067811865476 0 0.7071067811865475
vn -0.7071067811865475 0 -0.7071067811865476
vn 0 1 0
vn 0 -1 0
usemtl m_1e237f2c-ce46-43b3-876b-56e5ae76fba3
f 105/352/91 108/351/91 106/350/91 103/349/91
f 104/356/92 105/355/92 103/354/92 102/353/92
f 109/360/93 104/359/93 102/358/93 107/357/93
f 108/364/94 109/363/94 107/362/94 106/361/94
f 107/368/95 102/367/95 103/366/95 106/365/95
f 108/372/96 105/371/96 104/370/96 109/369/96
o cube
v 0.044667300702112334 1.9375 0.047461925089945844
v 0.01247742102023397 1.9375 -0.00611103120393619
v 0.044667300702112334 1.625 0.047461925089945844
v 0.01247742102023397 1.625 -0.00611103120393619
v -0.6303980545063503 1.9375 0.3801675249786045
v -0.5982081748244719 1.9375 0.43374048127248643
v -0.6303980545063503 1.625 0.3801675249786045
v -0.5982081748244719 1.625 0.43374048127248643
vt 0.40625 0.9609375
vt 0.5 0.9609375
vt 0.5 0.921875
vt 0.40625 0.921875
vt 0.421875 0.546875
vt 0.4296875 0.546875
vt 0.4296875 0.5078125
vt 0.421875 0.5078125
vt 0.40625 1
vt 0.5 1
vt 0.5 0.9609375
vt 0.40625 0.9609375
vt 0.4140625 0.546875
vt 0.421875 0.546875
vt 0.421875 0.5078125
vt 0.4140625 0.5078125
vt 0.4375 0.609375
vt 0.53125 0.609375
vt 0.53125 0.6015625
vt 0.4375 0.6015625
vt 0.4375 0.59375
vt 0.53125 0.59375
vt 0.53125 0.6015625
vt 0.4375 0.6015625
vn -0.5150380749100542 0 -0.8571673007021123
vn 0.8571673007021123 0 -0.5150380749100542
vn 0.5150380749100542 0 0.8571673007021123
vn -0.8571673007021123 0 0.5150380749100542
vn 0 1 0
vn 0 -1 0
usemtl m_1e237f2c-ce46-43b3-876b-56e5ae76fba3
f 113/376/97 116/375/97 114/374/97 111/373/97
f 112/380/98 113/379/98 111/378/98 110/377/98
f 117/384/99 112/383/99 110/382/99 115/381/99
f 116/388/100 117/387/100 115/386/100 114/385/100
f 115/392/101 110/391/101 111/390/101 114/389/101
f 116/396/102 113/395/102 112/394/102 117/393/102
o cube
v -0.3303433933550618 2.25 0.2727910828630946
v -0.36253327303694016 2.25 0.21921812656921258
v -0.3303433933550618 2 0.2727910828630946
v -0.36253327303694016 2 0.21921812656921258
v -0.5768250982124683 2.25 0.34797764529672603
v -0.5446352185305898 2.25 0.40155060159060807
v -0.5768250982124683 2 0.34797764529672603
v -0.5446352185305898 2 0.40155060159060807
vt 0.40625 0.578125
vt 0.4375 0.578125
vt 0.4375 0.546875
vt 0.40625 0.546875
vt 0.46875 0.546875
vt 0.4765625 0.546875
vt 0.4765625 0.515625
vt 0.46875 0.515625
vt 0.40625 0.609375
vt 0.4375 0.609375
vt 0.4375 0.578125
vt 0.40625 0.578125
vt 0.4296875 0.546875
vt 0.4375 0.546875
vt 0.4375 0.515625
vt 0.4296875 0.515625
vt 0.4765625 0.59375
vt 0.5078125 0.59375
vt 0.5078125 0.5859375
vt 0.4765625 0.5859375
vt 0.4765625 0.578125
vt 0.5078125 0.578125
vt 0.5078125 0.5859375
vt 0.4765625 0.5859375
vn -0.5150380749100542 0 -0.8571673007021123
vn 0.8571673007021123 0 -0.5150380749100542
vn 0.5150380749100542 0 0.8571673007021123
vn -0.8571673007021123 0 0.5150380749100542
vn 0 1 0
vn 0 -1 0
usemtl m_1e237f2c-ce46-43b3-876b-56e5ae76fba3
f 121/400/103 124/399/103 122/398/103 119/397/103
f 120/404/104 121/403/104 119/402/104 118/401/104
f 125/408/105 120/407/105 118/406/105 123/405/105
f 124/412/106 125/411/106 123/410/106 122/409/106
f 123/416/107 118/415/107 119/414/107 122/413/107
f 124/420/108 121/419/108 120/418/108 125/417/108
o cube
v 0.044667300702112334 2.375 0.047461925089945844
v 0.01247742102023397 2.375 -0.00611103120393619
v 0.044667300702112334 2 0.047461925089945844
v 0.01247742102023397 2 -0.00611103120393619
v -0.3089603167430581 2.375 0.1870282468873341
v -0.27677043706117976 2.375 0.24060120318121614
v -0.3089603167430581 2 0.1870282468873341
v -0.27677043706117976 2 0.24060120318121614
vt 0.40625 0.84375
vt 0.453125 0.84375
vt 0.453125 0.796875
vt 0.40625 0.796875
vt 0.453125 0.59375
vt 0.4609375 0.59375
vt 0.4609375 0.546875
vt 0.453125 0.546875
vt 0.40625 0.890625
vt 0.453125 0.890625
vt 0.453125 0.84375
vt 0.40625 0.84375
vt 0.40625 0.546875
vt 0.4140625 0.546875
vt 0.4140625 0.5
vt 0.40625 0.5
vt 0.453125 0.8125
vt 0.5 0.8125
vt 0.5 0.8046875
vt 0.453125 0.8046875
vt 0.453125 0.796875
vt 0.5 0.796875
vt 0.5 0.8046875
vt 0.453125 0.8046875
vn -0.5150380749100542 0 -0.8571673007021123
vn 0.8571673007021123 0 -0.5150380749100542
vn 0.5150380749100542 0 0.8571673007021123
vn -0.8571673007021123 0 0.5150380749100542
vn 0 1 0
vn 0 -1 0
usemtl m_1e237f2c-ce46-43b3-876b-56e5ae76fba3
f 129/424/109 132/423/109 130/422/109 127/421/109
f 128/428/110 129/427/110 127/426/110 126/425/110
f 133/432/111 128/431/111 126/430/111 131/429/111
f 132/436/112 133/435/112 131/434/112 130/433/112
f 131/440/113 126/439/113 127/438/113 130/437/113
f 132/444/114 129/443/114 128/442/114 133/441/114