# Made in Blockbench 4.9.4
mtllib lathe_holder_mirrored.mtl

o cylinder
v 1.4375 0.4375 0.5
v 1.125 0.4375 0.5
v 1.4375 0.49611388584430793 0.71875
v 1.125 0.49611388584430793 0.71875
v 1.4375 0.5976361141556918 0.6601361141556918
v 1.125 0.5976361141556918 0.6601361141556918
v 1.4375 0.65625 0.5586138858443079
v 1.125 0.65625 0.5586138858443079
v 1.4375 0.65625 0.44138611415569184
v 1.125 0.65625 0.44138611415569184
v 1.4375 0.5976361141556918 0.33986388584430816
v 1.125 0.5976361141556918 0.33986388584430816
v 1.4375 0.49611388584430816 0.28125
v 1.125 0.49611388584430816 0.28125
v 1.4375 0.37888611415569207 0.28125
v 1.125 0.37888611415569207 0.28125
v 1.4375 0.27736388584430816 0.33986388584430793
v 1.125 0.27736388584430816 0.33986388584430793
v 1.4375 0.21875 0.44138611415569207
v 1.125 0.21875 0.44138611415569207
v 1.4375 0.21875 0.5586138858443079
v 1.125 0.21875 0.5586138858443079
v 1.4375 0.27736388584430793 0.6601361141556918
v 1.125 0.27736388584430793 0.6601361141556918
v 1.4375 0.37888611415569207 0.71875
v 1.125 0.37888611415569207 0.71875
vt 0.42920156249999997 0.9926734375
vt 0.421875 0.9799828125
vt 0.44921875 0.97265625
vt 0.671875 0.032221874999999955
vt 0.671875 0.046875
vt 0.6328125 0.046875
vt 0.6328125 0.032221874999999955
vt 0.6875 0.04248281249999997
vt 0.6801734375 0.05517343750000003
vt 0.66015625 0.03515625
vt 0.44189218750000003 1
vt 0.42920156249999997 0.9926734375
vt 0.44921875 0.97265625
vt 0.671875 0.010728124999999977
vt 0.671875 0.025381250000000022
vt 0.6328125 0.025381250000000022
vt 0.6328125 0.010728124999999977
vt 0.6801734375 0.05517343750000003
vt 0.6674828125 0.0625
vt 0.66015625 0.03515625
vt 0.45654531249999997 1
vt 0.44189218750000003 1
vt 0.44921875 0.97265625
vt 0.671875 0.025381250000000022
vt 0.671875 0.040034375000000066
vt 0.6328125 0.040034375000000066
vt 0.6328125 0.025381250000000022
vt 0.6674828125 0.0625
vt 0.6528296875 0.0625
vt 0.66015625 0.03515625
vt 0.46923593750000003 0.9926734375
vt 0.45654531249999997 1
vt 0.44921875 0.97265625
vt 0.671875 0.040034375000000066
vt 0.671875 0.0546875
vt 0.6328125 0.0546875
vt 0.6328125 0.040034375000000066
vt 0.6528296875 0.0625
vt 0.6401390625 0.05517343750000003
vt 0.66015625 0.03515625
vt 0.4765625 0.9799828125
vt 0.46923593750000003 0.9926734375
vt 0.44921875 0.97265625
vt 0.640625 0.0546875
vt 0.640625 0.040034374999999955
vt 0.6796875 0.040034374999999955
vt 0.6796875 0.0546875
vt 0.6401390625 0.05517343750000003
vt 0.6328125 0.04248281249999997
vt 0.66015625 0.03515625
vt 0.4765625 0.9653296875
vt 0.4765625 0.9799828125
vt 0.44921875 0.97265625
vt 0.640625 0.040034374999999955
vt 0.640625 0.025381250000000022
vt 0.6796875 0.025381250000000022
vt 0.6796875 0.040034374999999955
vt 0.6328125 0.04248281249999997
vt 0.6328125 0.027829687500000033
vt 0.66015625 0.03515625
vt 0.46923593750000003 0.9526390625
vt 0.4765625 0.9653296875
vt 0.44921875 0.97265625
vt 0.640625 0.025381250000000022
vt 0.640625 0.010728124999999977
vt 0.6796875 0.010728124999999977
vt 0.6796875 0.025381250000000022
vt 0.6328125 0.027829687500000033
vt 0.6401390625 0.015139062499999967
vt 0.66015625 0.03515625
vt 0.45654531249999997 0.9453125
vt 0.46923593750000003 0.9526390625
vt 0.44921875 0.97265625
vt 0.6796875 0.015625
vt 0.6796875 0.030278124999999934
vt 0.640625 0.030278124999999934
vt 0.640625 0.015625
vt 0.6401390625 0.015139062499999967
vt 0.6528296875 0.0078125
vt 0.66015625 0.03515625
vt 0.44189218750000003 0.9453125
vt 0.45654531249999997 0.9453125
vt 0.44921875 0.97265625
vt 0.6796875 0.030278124999999934
vt 0.6796875 0.04493124999999998
vt 0.640625 0.04493124999999998
vt 0.640625 0.030278124999999934
vt 0.6528296875 0.0078125
vt 0.6674828125 0.0078125
vt 0.66015625 0.03515625
vt 0.42920156249999997 0.9526390625
vt 0.44189218750000003 0.9453125
vt 0.44921875 0.97265625
vt 0.6796875 0.04493124999999998
vt 0.6796875 0.05958437500000002
vt 0.640625 0.05958437500000002
vt 0.640625 0.04493124999999998
vt 0.6674828125 0.0078125
vt 0.6801734375 0.015139062499999967
vt 0.66015625 0.03515625
vt 0.421875 0.9653296875
vt 0.42920156249999997 0.9526390625
vt 0.44921875 0.97265625
vt 0.671875 0.0029156249999999773
vt 0.671875 0.017568750000000022
vt 0.6328125 0.017568750000000022
vt 0.6328125 0.0029156249999999773
vt 0.6801734375 0.015139062499999967
vt 0.6875 0.027829687500000033
vt 0.66015625 0.03515625
vt 0.421875 0.9799828125
vt 0.421875 0.9653296875
vt 0.44921875 0.97265625
vt 0.671875 0.017568750000000022
vt 0.671875 0.032221874999999955
vt 0.6328125 0.032221874999999955
vt 0.6328125 0.017568750000000022
vt 0.6875 0.027829687500000033
vt 0.6875 0.04248281249999997
vt 0.66015625 0.03515625
vn 1 0 0
vn 0 0.5000000000000001 0.8660254037844387
vn -1 0 0
vn 1 0 0
vn 0 0.8660254037844387 0.5000000000000001
vn -1 0 0
vn 1 0 0
vn 0 1 0
vn -1 0 0
vn 1 0 0
vn 0 0.8660254037844382 -0.5000000000000009
vn -1 0 0
vn 1 0 0
vn 0 0.5000000000000009 -0.8660254037844382
vn -1 0 0
vn 1 0 0
vn 0 0 -1
vn -1 0 0
vn 1 0 0
vn 0 -0.49999999999999867 -0.8660254037844395
vn -1 0 0
vn 1 0 0
vn 0 -0.8660254037844392 -0.4999999999999992
vn -1 0 0
vn 1 0 0
vn 0 -1 0
vn -1 0 0
vn 1 0 0
vn 0 -0.8660254037844395 0.49999999999999867
vn -1 0 0
vn 1 0 0
vn 0 -0.4999999999999992 0.8660254037844392
vn -1 0 0
vn 1 0 0
vn 0 0 1
vn -1 0 0
usemtl m_8a512336-861f-d9fa-4e5c-c4dbe89147af
f 5/1/1 3/2/1 1/3/1
f 3/4/2 5/5/2 6/6/2 4/7/2
f 4/8/3 6/9/3 2/10/3
f 7/11/4 5/12/4 1/13/4
f 5/14/5 7/15/5 8/16/5 6/17/5
f 6/18/6 8/19/6 2/20/6
f 9/21/7 7/22/7 1/23/7
f 7/24/8 9/25/8 10/26/8 8/27/8
f 8/28/9 10/29/9 2/30/9
f 11/31/10 9/32/10 1/33/10
f 9/34/11 11/35/11 12/36/11 10/37/11
f 10/38/12 12/39/12 2/40/12
f 13/41/13 11/42/13 1/43/13
f 11/44/14 13/45/14 14/46/14 12/47/14
f 12/48/15 14/49/15 2/50/15
f 15/51/16 13/52/16 1/53/16
f 13/54/17 15/55/17 16/56/17 14/57/17
f 14/58/18 16/59/18 2/60/18
f 17/61/19 15/62/19 1/63/19
f 15/64/20 17/65/20 18/66/20 16/67/20
f 16/68/21 18/69/21 2/70/21
f 19/71/22 17/72/22 1/73/22
f 17/74/23 19/75/23 20/76/23 18/77/23
f 18/78/24 20/79/24 2/80/24
f 21/81/25 19/82/25 1/83/25
f 19/84/26 21/85/26 22/86/26 20/87/26
f 20/88/27 22/89/27 2/90/27
f 23/91/28 21/92/28 1/93/28
f 21/94/29 23/95/29 24/96/29 22/97/29
f 22/98/30 24/99/30 2/100/30
f 25/101/31 23/102/31 1/103/31
f 23/104/32 25/105/32 26/106/32 24/107/32
f 24/108/33 26/109/33 2/110/33
f 3/111/34 25/112/34 1/113/34
f 25/114/35 3/115/35 4/116/35 26/117/35
f 26/118/36 4/119/36 2/120/36
o cube
v 1.125 0.3630007938682638 0.30846358985628586
v 1.125 0.30887420613173633 0.33971358985628586
v 1.125 0.4411257938682637 0.44378005919760444
v 1.125 0.38699920613173633 0.47503005919760444
v 1.09375 0.3630007938682638 0.30846358985628586
v 1.09375 0.30887420613173633 0.33971358985628586
v 1.0625 0.4411257938682637 0.44378005919760444
v 1.0625 0.38699920613173633 0.47503005919760444
vt 0.96875 0.203125
vt 0.96875 0.2265625
vt 0.9609375 0.2265625
vt 0.9609375 0.203125
vt 0.9609375 0.1953125
vt 0.9609375 0.21875
vt 0.953125 0.21875
vt 0.953125 0.1953125
vt 0.8828125 0.265625
vt 0.8828125 0.2734375
vt 0.875 0.2734375
vt 0.875 0.265625
vt 0.90625 0.2890625
vt 0.90625 0.296875
vt 0.8984375 0.296875
vt 0.8984375 0.2890625
vt 0.9453125 0.09375
vt 0.9453125 0.1171875
vt 0.94140625 0.1171875
vt 0.9375 0.09375
vt 0.9609375 0.09375
vt 0.95703125 0.1171875
vt 0.953125 0.1171875
vt 0.953125 0.09375
vn 1 0 0
vn -0.9805806756909202 -0.09805806756909198 -0.1698415551216894
vn 0 -0.4999999999999998 -0.8660254037844388
vn 0 0.4999999999999998 0.8660254037844388
vn 0 0.8660254037844388 -0.4999999999999998
vn 0 -0.8660254037844388 0.4999999999999998
usemtl m_8a512336-861f-d9fa-4e5c-c4dbe89147af
f 30/121/37 28/122/37 27/123/37 29/124/37
f 33/125/38 31/126/38 32/127/38 34/128/38
f 27/129/39 28/130/39 32/131/39 31/132/39
f 30/133/40 29/134/40 33/135/40 34/136/40
f 29/137/41 27/138/41 31/139/41 33/140/41
f 34/141/42 32/142/42 28/143/42 30/144/42
o cube
v 1.125 0.640625 0.53125
v 1.125 0.640625 0.46875
v 1.125 0.484375 0.53125
v 1.125 0.484375 0.46875
v 1.09375 0.640625 0.53125
v 1.09375 0.640625 0.46875
v 1.0625 0.484375 0.53125
v 1.0625 0.484375 0.46875
vt 0.96875 0.203125
vt 0.96875 0.2265625
vt 0.9609375 0.2265625
vt 0.9609375 0.203125
vt 0.9609375 0.1953125
vt 0.9609375 0.21875
vt 0.953125 0.21875
vt 0.953125 0.1953125
vt 0.8828125 0.265625
vt 0.8828125 0.2734375
vt 0.875 0.2734375
vt 0.875 0.265625
vt 0.90625 0.2890625
vt 0.90625 0.296875
vt 0.8984375 0.296875
vt 0.8984375 0.2890625
vt 0.9453125 0.09375
vt 0.9453125 0.1171875
vt 0.94140625 0.1171875
vt 0.9375 0.09375
vt 0.9609375 0.09375
vt 0.95703125 0.1171875
vt 0.953125 0.1171875
vt 0.953125 0.09375
vn 1 0 0
vn -0.9805806756909202 0.19611613513818404 0
vn 0 1 0
vn 0 -1 0
vn 0 0 1
vn 0 0 -1
usemtl m_8a512336-861f-d9fa-4e5c-c4dbe89147af
f 38/145/43 36/146/43 35/147/43 37/148/43
f 41/149/44 39/150/44 40/151/44 42/152/44
f 35/153/45 36/154/45 40/155/45 39/156/45
f 38/157/46 37/158/46 41/159/46 42/160/46
f 37/161/47 35/162/47 39/163/47 41/164/47
f 42/165/48 40/166/48 36/167/48 38/168/48
o cube
v 1.125 0.30887420613173633 0.6602864101437141
v 1.125 0.3630007938682638 0.6915364101437141
v 1.125 0.38699920613173633 0.5249699408023956
v 1.125 0.4411257938682637 0.5562199408023956
v 1.09375 0.30887420613173633 0.6602864101437141
v 1.09375 0.3630007938682638 0.6915364101437141
v 1.0625 0.38699920613173633 0.5249699408023956
v 1.0625 0.4411257938682637 0.5562199408023956
vt 0.96875 0.203125
vt 0.96875 0.2265625
vt 0.9609375 0.2265625
vt 0.9609375 0.203125
vt 0.9609375 0.1953125
vt 0.9609375 0.21875
vt 0.953125 0.21875
vt 0.953125 0.1953125
vt 0.8828125 0.265625
vt 0.8828125 0.2734375
vt 0.875 0.2734375
vt 0.875 0.265625
vt 0.90625 0.2890625
vt 0.90625 0.296875
vt 0.8984375 0.296875
vt 0.8984375 0.2890625
vt 0.9453125 0.09375
vt 0.9453125 0.1171875
vt 0.94140625 0.1171875
vt 0.9375 0.09375
vt 0.9609375 0.09375
vt 0.95703125 0.1171875
vt 0.953125 0.1171875
vt 0.953125 0.09375
vn 1 0 0
vn -0.9805806756909202 -0.09805806756909198 0.1698415551216894
vn 0 -0.4999999999999998 0.8660254037844388
vn 0 0.4999999999999998 -0.8660254037844388
vn 0 -0.8660254037844388 -0.4999999999999998
vn 0 0.8660254037844388 0.4999999999999998
usemtl m_8a512336-861f-d9fa-4e5c-c4dbe89147af
f 46/169/49 44/170/49 43/171/49 45/172/49
f 49/173/50 47/174/50 48/175/50 50/176/50
f 43/177/51 44/178/51 48/179/51 47/180/51
f 46/181/52 45/182/52 49/183/52 50/184/52
f 45/185/53 43/186/53 47/187/53 49/188/53
f 50/189/54 48/190/54 44/191/54 46/192/54