# Made in Blockbench 4.9.4
mtllib metal_roller_roller2_mirrored.mtl

o cylinder
v 1.609375 0.625 0.671875
v -0.578125 0.625 0.671875
v 1.609375 0.6501202367904177 0.765625
v -0.578125 0.6501202367904177 0.765625
v 1.609375 0.6936297632095823 0.7405047632095823
v -0.578125 0.6936297632095823 0.7405047632095823
v 1.609375 0.71875 0.6969952367904177
v -0.578125 0.71875 0.6969952367904177
v 1.609375 0.71875 0.6467547632095823
v -0.578125 0.71875 0.6467547632095823
v 1.609375 0.6936297632095823 0.6032452367904177
v -0.578125 0.6936297632095823 0.6032452367904177
v 1.609375 0.6501202367904177 0.578125
v -0.578125 0.6501202367904177 0.578125
v 1.609375 0.5998797632095823 0.578125
v -0.578125 0.5998797632095823 0.578125
v 1.609375 0.5563702367904177 0.6032452367904177
v -0.578125 0.5563702367904177 0.6032452367904177
v 1.609375 0.53125 0.6467547632095823
v -0.578125 0.53125 0.6467547632095823
v 1.609375 0.53125 0.6969952367904177
v -0.578125 0.53125 0.6969952367904177
v 1.609375 0.5563702367904177 0.7405047632095823
v -0.578125 0.5563702367904177 0.7405047632095823
v 1.609375 0.5998797632095823 0.765625
v -0.578125 0.5998797632095823 0.765625
vt 0.0031398437499999994 0.55936015625
vt 0 0.55392109375
vt 0.01171875 0.55078125
vt 0.5859375 0.048407812500000036
vt 0.5859375 0.0546875
vt 0.3125 0.0546875
vt 0.3125 0.048407812500000036
vt 0.4921875 0.014858593749999982
vt 0.48904765625 0.020297656250000018
vt 0.48046875 0.01171875
vt 0.00857890625 0.5625
vt 0.0031398437499999994 0.55936015625
vt 0.01171875 0.55078125
vt 0.3046875 0.0436609375
vt 0.3046875 0.04994062499999996
vt 0.03125 0.04994062499999996
vt 0.03125 0.0436609375
vt 0.48904765625 0.020297656250000018
vt 0.48360859375 0.0234375
vt 0.48046875 0.01171875
vt 0.01485859375 0.5625
vt 0.00857890625 0.5625
vt 0.01171875 0.55078125
vt 0.3046875 0.04994062499999996
vt 0.3046875 0.056220312500000036
vt 0.03125 0.056220312500000036
vt 0.03125 0.04994062499999996
vt 0.48360859375 0.0234375
vt 0.47732890625 0.0234375
vt 0.48046875 0.01171875
vt 0.02029765625 0.55936015625
vt 0.01485859375 0.5625
vt 0.01171875 0.55078125
vt 0.3046875 0.056220312500000036
vt 0.3046875 0.0625
vt 0.03125 0.0625
vt 0.03125 0.056220312500000036
vt 0.47732890625 0.0234375
vt 0.47188984375 0.020297656250000018
vt 0.48046875 0.01171875
vt 0.0234375 0.55392109375
vt 0.02029765625 0.55936015625
vt 0.01171875 0.55078125
vt 0.3125 0.1171875
vt 0.3125 0.11090781250000004
vt 0.5859375 0.11090781250000004
vt 0.5859375 0.1171875
vt 0.47188984375 0.020297656250000018
vt 0.46875 0.014858593749999982
vt 0.48046875 0.01171875
vt 0.0234375 0.54764140625
vt 0.0234375 0.55392109375
vt 0.01171875 0.55078125
vt 0.3125 0.11090781250000004
vt 0.3125 0.10462812499999996
vt 0.5859375 0.10462812499999996
vt 0.5859375 0.11090781250000004
vt 0.46875 0.014858593749999982
vt 0.46875 0.008578906250000018
vt 0.48046875 0.01171875
vt 0.02029765625 0.54220234375
vt 0.0234375 0.54764140625
vt 0.01171875 0.55078125
vt 0.3125 0.10462812499999996
vt 0.3125 0.0983484375
vt 0.5859375 0.0983484375
vt 0.5859375 0.10462812499999996
vt 0.46875 0.008578906250000018
vt 0.47188984375 0.003139843749999982
vt 0.48046875 0.01171875
vt 0.01485859375 0.5390625
vt 0.02029765625 0.54220234375
vt 0.01171875 0.55078125
vt 0.5859375 0.0625
vt 0.5859375 0.06877968749999996
vt 0.3125 0.06877968749999996
vt 0.3125 0.0625
vt 0.47188984375 0.003139843749999982
vt 0.47732890625 0
vt 0.48046875 0.01171875
vt 0.00857890625 0.5390625
vt 0.01485859375 0.5390625
vt 0.01171875 0.55078125
vt 0.5859375 0.06877968749999996
vt 0.5859375 0.07505937500000004
vt 0.3125 0.07505937500000004
vt 0.3125 0.06877968749999996
vt 0.47732890625 0
vt 0.48360859375 0
vt 0.48046875 0.01171875
vt 0.0031398437499999994 0.54220234375
vt 0.00857890625 0.5390625
vt 0.01171875 0.55078125
vt 0.5859375 0.07505937500000004
vt 0.5859375 0.0813390625
vt 0.3125 0.0813390625
vt 0.3125 0.07505937500000004
vt 0.48360859375 0
vt 0.48904765625 0.003139843749999982
vt 0.48046875 0.01171875
vt 0 0.54764140625
vt 0.0031398437499999994 0.54220234375
vt 0.01171875 0.55078125
vt 0.5859375 0.0358484375
vt 0.5859375 0.04212812499999996
vt 0.3125 0.04212812499999996
vt 0.3125 0.0358484375
vt 0.48904765625 0.003139843749999982
vt 0.4921875 0.008578906250000018
vt 0.48046875 0.01171875
vt 0 0.55392109375
vt 0 0.54764140625
vt 0.01171875 0.55078125
vt 0.5859375 0.04212812499999996
vt 0.5859375 0.048407812500000036
vt 0.3125 0.048407812500000036
vt 0.3125 0.04212812499999996
vt 0.4921875 0.008578906250000018
vt 0.4921875 0.014858593749999982
vt 0.48046875 0.01171875
vn 1 0 0
vn 0 0.4999999999999999 0.8660254037844387
vn -1 0 0
vn 1 0 0
vn 0 0.8660254037844387 0.4999999999999999
vn -1 0 0
vn 1 0 0
vn 0 1 0
vn -1 0 0
vn 1 0 0
vn 0 0.8660254037844387 -0.4999999999999999
vn -1 0 0
vn 1 0 0
vn 0 0.4999999999999999 -0.8660254037844387
vn -1 0 0
vn 1 0 0
vn 0 0 -1
vn -1 0 0
vn 1 0 0
vn 0 -0.4999999999999999 -0.8660254037844387
vn -1 0 0
vn 1 0 0
vn 0 -0.8660254037844387 -0.4999999999999999
vn -1 0 0
vn 1 0 0
vn 0 -1 0
vn -1 0 0
vn 1 0 0
vn 0 -0.866025403784439 0.4999999999999994
vn -1 0 0
vn 1 0 0
vn 0 -0.4999999999999999 0.8660254037844387
vn -1 0 0
vn 1 0 0
vn 0 0 1
vn -1 0 0
usemtl m_305bbb48-0865-514a-2573-6f96182f18f2
f 5/1/1 3/2/1 1/3/1
f 3/4/2 5/5/2 6/6/2 4/7/2
f 4/8/3 6/9/3 2/10/3
f 7/11/4 5/12/4 1/13/4
f 5/14/5 7/15/5 8/16/5 6/17/5
f 6/18/6 8/19/6 2/20/6
f 9/21/7 7/22/7 1/23/7
f 7/24/8 9/25/8 10/26/8 8/27/8
f 8/28/9 10/29/9 2/30/9
f 11/31/10 9/32/10 1/33/10
f 9/34/11 11/35/11 12/36/11 10/37/11
f 10/38/12 12/39/12 2/40/12
f 13/41/13 11/42/13 1/43/13
f 11/44/14 13/45/14 14/46/14 12/47/14
f 12/48/15 14/49/15 2/50/15
f 15/51/16 13/52/16 1/53/16
f 13/54/17 15/55/17 16/56/17 14/57/17
f 14/58/18 16/59/18 2/60/18
f 17/61/19 15/62/19 1/63/19
f 15/64/20 17/65/20 18/66/20 16/67/20
f 16/68/21 18/69/21 2/70/21
f 19/71/22 17/72/22 1/73/22
f 17/74/23 19/75/23 20/76/23 18/77/23
f 18/78/24 20/79/24 2/80/24
f 21/81/25 19/82/25 1/83/25
f 19/84/26 21/85/26 22/86/26 20/87/26
f 20/88/27 22/89/27 2/90/27
f 23/91/28 21/92/28 1/93/28
f 21/94/29 23/95/29 24/96/29 22/97/29
f 22/98/30 24/99/30 2/100/30
f 25/101/31 23/102/31 1/103/31
f 23/104/32 25/105/32 26/106/32 24/107/32
f 24/108/33 26/109/33 2/110/33
f 3/111/34 25/112/34 1/113/34
f 25/114/35 3/115/35 4/116/35 26/117/35
f 26/118/36 4/119/36 2/120/36