# Made in Blockbench 4.9.4
mtllib metal_press_ports.mtl

o cube
v 1.0006249999999999 1.75 0.2500000000000001
v -0.0006249999999998757 1.75 0.2499999999999999
v 1.0006249999999999 1.25 0.2500000000000001
v -0.0006249999999998757 1.25 0.2499999999999999
v -0.0006250000000000977 1.75 0.75
v 1.0006249999999999 1.75 0.75
v -0.0006250000000000977 1.25 0.75
v 1.0006249999999999 1.25 0.75
vt 0.25 0.5
vt 0.5 0.5
vt 0.5 0.25
vt 0.25 0.25
vt 0 1
vt 0.5 1
vt 0.5 0.75
vt 0 0.75
vt 0.5 0.5
vt 0.75 0.5
vt 0.75 0.25
vt 0.5 0.25
vt 0 0.75
vt 0.5 0.75
vt 0.5 0.5
vt 0 0.5
vt 0.25 0
vt 0 0
vt 0 0.5
vt 0.25 0.5
vt 0.75 1
vt 0.5 1
vt 0.5 0.5
vt 0.75 0.5
vn -1 0 -2.220446049250313e-16
vn 2.220446049250313e-16 0 -1
vn 1 0 2.220446049250313e-16
vn -2.220446049250313e-16 0 1
vn 0 1 0
vn 0 -1 0
usemtl m_e70c8d78-a4f0-a1ce-96f9-572460a337d6
f 4/4/1 7/3/1 5/2/1 2/1/1
f 3/8/2 4/7/2 2/6/2 1/5/2
f 8/12/3 3/11/3 1/10/3 6/9/3
f 7/16/4 8/15/4 6/14/4 5/13/4
f 6/20/5 1/19/5 2/18/5 5/17/5
f 7/24/6 4/23/6 3/22/6 8/21/6
o cube
v 0.75 1.75 1.0006249999999999
v 0.75 1.75 -0.0006249999999999867
v 0.75 1.25 1.0006249999999999
v 0.75 1.25 -0.0006249999999999867
v 0.25 1.75 -0.0006249999999999867
v 0.25 1.75 1.0006249999999999
v 0.25 1.25 -0.0006249999999999867
v 0.25 1.25 1.0006249999999999
vt 0.25 0.5
vt 0.5 0.5
vt 0.5 0.25
vt 0.25 0.25
vt 0 1
vt 0.5 1
vt 0.5 0.75
vt 0 0.75
vt 0.5 0.5
vt 0.75 0.5
vt 0.75 0.25
vt 0.5 0.25
vt 0 0.75
vt 0.5 0.75
vt 0.5 0.5
vt 0 0.5
vt 0.25 0
vt 0 0
vt 0 0.5
vt 0.25 0.5
vt 0.75 1
vt 0.5 1
vt 0.5 0.5
vt 0.75 0.5
vn 0 0 -1
vn 1 0 0
vn 0 0 1
vn -1 0 0
vn 0 1 0
vn 0 -1 0
usemtl m_e70c8d78-a4f0-a1ce-96f9-572460a337d6
f 12/28/7 15/27/7 13/26/7 10/25/7
f 11/32/8 12/31/8 10/30/8 9/29/8
f 16/36/9 11/35/9 9/34/9 14/33/9
f 15/40/10 16/39/10 14/38/10 13/37/10
f 14/44/11 9/43/11 10/42/11 13/41/11
f 15/48/12 12/47/12 11/46/12 16/45/12