# Made in Blockbench 4.9.4
mtllib metal_roller_roller1.mtl

o cylinder
v -0.609375 0.625 0.328125
v 1.578125 0.625 0.328125
v -0.609375 0.6501202367904177 0.421875
v 1.578125 0.6501202367904177 0.421875
v -0.609375 0.6936297632095823 0.39675476320958225
v 1.578125 0.6936297632095823 0.39675476320958225
v -0.609375 0.71875 0.35324523679041775
v 1.578125 0.71875 0.35324523679041775
v -0.609375 0.71875 0.30300476320958225
v 1.578125 0.71875 0.30300476320958225
v -0.609375 0.6936297632095823 0.25949523679041775
v 1.578125 0.6936297632095823 0.25949523679041775
v -0.609375 0.6501202367904177 0.234375
v 1.578125 0.6501202367904177 0.234375
v -0.609375 0.5998797632095823 0.234375
v 1.578125 0.5998797632095823 0.234375
v -0.609375 0.5563702367904177 0.25949523679041775
v 1.578125 0.5563702367904177 0.25949523679041775
v -0.609375 0.53125 0.30300476320958225
v 1.578125 0.53125 0.30300476320958225
v -0.609375 0.53125 0.3532452367904177
v 1.578125 0.53125 0.3532452367904177
v -0.609375 0.5563702367904177 0.39675476320958225
v 1.578125 0.5563702367904177 0.39675476320958225
v -0.609375 0.5998797632095823 0.421875
v 1.578125 0.5998797632095823 0.421875
vt 0.484375 0.13127968749999996
vt 0.48751484375 0.13671875
vt 0.49609375 0.12813984374999998
vt 0.125 0.05392109374999998
vt 0.3984375 0.05392109374999998
vt 0.3984375 0.04764140625000002
vt 0.125 0.04764140625000002
vt 0.49686015625 0.01171875
vt 0.5 0.006279687499999964
vt 0.48828125 0.003139843749999982
vt 0.48751484375 0.13671875
vt 0.49295390625 0.13985859374999998
vt 0.49609375 0.12813984374999998
vt 0.125 0.16636171874999994
vt 0.3984375 0.16636171874999994
vt 0.3984375 0.16008203124999998
vt 0.125 0.16008203124999998
vt 0.49142109375 0.014858593749999982
vt 0.49686015625 0.01171875
vt 0.48828125 0.003139843749999982
vt 0.49295390625 0.13985859374999998
vt 0.49923359375 0.13985859374999998
vt 0.49609375 0.12813984374999998
vt 0.125 0.17264140625000002
vt 0.3984375 0.17264140625000002
vt 0.3984375 0.16636171874999994
vt 0.125 0.16636171874999994
vt 0.48514140625 0.014858593749999982
vt 0.49142109375 0.014858593749999982
vt 0.48828125 0.003139843749999982
vt 0.49923359375 0.13985859374999998
vt 0.50467265625 0.13671875
vt 0.49609375 0.12813984374999998
vt 0.125 0.17892109374999998
vt 0.3984375 0.17892109374999998
vt 0.3984375 0.17264140625000002
vt 0.125 0.17264140625000002
vt 0.47970234375 0.01171875
vt 0.48514140625 0.014858593749999982
vt 0.48828125 0.003139843749999982
vt 0.50467265625 0.13671875
vt 0.5078125 0.13127968749999996
vt 0.49609375 0.12813984374999998
vt 0.3984375 0.11014140625000002
vt 0.125 0.11014140625000002
vt 0.125 0.11642109374999998
vt 0.3984375 0.11642109374999998
vt 0.4765625 0.006279687499999964
vt 0.47970234375 0.01171875
vt 0.48828125 0.003139843749999982
vt 0.5078125 0.13127968749999996
vt 0.5078125 0.125
vt 0.49609375 0.12813984374999998
vt 0.3984375 0.10386171874999994
vt 0.125 0.10386171874999994
vt 0.125 0.11014140625000002
vt 0.3984375 0.11014140625000002
vt 0.4765625 0
vt 0.4765625 0.006279687499999964
vt 0.48828125 0.003139843749999982
vt 0.5078125 0.125
vt 0.50467265625 0.11956093749999996
vt 0.49609375 0.12813984374999998
vt 0.3984375 0.09758203124999998
vt 0.125 0.09758203124999998
vt 0.125 0.10386171874999994
vt 0.3984375 0.10386171874999994
vt 0.40938984375 0.55001484375
vt 0.40625 0.55545390625
vt 0.41796875 0.55859375
vt 0.50467265625 0.11956093749999996
vt 0.49923359375 0.11642109374999998
vt 0.49609375 0.12813984374999998
vt 0.125 0.06801328124999995
vt 0.3984375 0.06801328124999995
vt 0.3984375 0.06173359374999998
vt 0.125 0.06173359374999998
vt 0.41482890625 0.546875
vt 0.40938984375 0.55001484375
vt 0.41796875 0.55859375
vt 0.49923359375 0.11642109374999998
vt 0.49295390625 0.11642109374999998
vt 0.49609375 0.12813984374999998
vt 0.125 0.07429296874999991
vt 0.3984375 0.07429296874999991
vt 0.3984375 0.06801328124999995
vt 0.125 0.06801328124999995
vt 0.42110859375 0.546875
vt 0.41482890625 0.546875
vt 0.41796875 0.55859375
vt 0.49295390625 0.11642109374999998
vt 0.48751484375 0.11956093749999996
vt 0.49609375 0.12813984374999998
vt 0.125 0.08057265624999999
vt 0.3984375 0.08057265624999999
vt 0.3984375 0.07429296874999991
vt 0.125 0.07429296874999991
vt 0.42654765625 0.55001484375
vt 0.42110859375 0.546875
vt 0.41796875 0.55859375
vt 0.48751484375 0.11956093749999996
vt 0.484375 0.125
vt 0.49609375 0.12813984374999998
vt 0.125 0.041361718750000054
vt 0.3984375 0.041361718750000054
vt 0.3984375 0.03508203124999998
vt 0.125 0.03508203124999998
vt 0.4296875 0.55545390625
vt 0.42654765625 0.55001484375
vt 0.41796875 0.55859375
vt 0.484375 0.125
vt 0.484375 0.13127968749999996
vt 0.49609375 0.12813984374999998
vt 0.125 0.04764140625000002
vt 0.3984375 0.04764140625000002
vt 0.3984375 0.041361718750000054
vt 0.125 0.041361718750000054
vt 0.5 0.006279687499999964
vt 0.5 0
vt 0.48828125 0.003139843749999982
vn -1 0 0
vn 0 0.4999999999999999 0.8660254037844387
vn 1 0 0
vn -1 0 0
vn 0 0.8660254037844387 0.4999999999999999
vn 1 0 0
vn -1 0 0
vn 0 1 0
vn 1 0 0
vn -1 0 0
vn 0 0.8660254037844387 -0.4999999999999999
vn 1 0 0
vn -1 0 0
vn 0 0.4999999999999999 -0.8660254037844387
vn 1 0 0
vn -1 0 0
vn 0 0 -1
vn 1 0 0
vn -1 0 0
vn 0 -0.4999999999999999 -0.8660254037844387
vn 1 0 0
vn -1 0 0
vn 0 -0.8660254037844387 -0.4999999999999999
vn 1 0 0
vn -1 0 0
vn 0 -1 0
vn 1 0 0
vn -1 0 0
vn 0 -0.8660254037844388 0.4999999999999996
vn 1 0 0
vn -1 0 0
vn 0 -0.5000000000000003 0.8660254037844387
vn 1 0 0
vn -1 0 0
vn 0 0 1
vn 1 0 0
usemtl m_305bbb48-0865-514a-2573-6f96182f18f2
f 3/1/1 5/2/1 1/3/1
f 6/4/2 5/5/2 3/6/2 4/7/2
f 6/8/3 4/9/3 2/10/3
f 5/11/4 7/12/4 1/13/4
f 8/14/5 7/15/5 5/16/5 6/17/5
f 8/18/6 6/19/6 2/20/6
f 7/21/7 9/22/7 1/23/7
f 10/24/8 9/25/8 7/26/8 8/27/8
f 10/28/9 8/29/9 2/30/9
f 9/31/10 11/32/10 1/33/10
f 12/34/11 11/35/11 9/36/11 10/37/11
f 12/38/12 10/39/12 2/40/12
f 11/41/13 13/42/13 1/43/13
f 14/44/14 13/45/14 11/46/14 12/47/14
f 14/48/15 12/49/15 2/50/15
f 13/51/16 15/52/16 1/53/16
f 16/54/17 15/55/17 13/56/17 14/57/17
f 16/58/18 14/59/18 2/60/18
f 15/61/19 17/62/19 1/63/19
f 18/64/20 17/65/20 15/66/20 16/67/20
f 18/68/21 16/69/21 2/70/21
f 17/71/22 19/72/22 1/73/22
f 20/74/23 19/75/23 17/76/23 18/77/23
f 20/78/24 18/79/24 2/80/24
f 19/81/25 21/82/25 1/83/25
f 22/84/26 21/85/26 19/86/26 20/87/26
f 22/88/27 20/89/27 2/90/27
f 21/91/28 23/92/28 1/93/28
f 24/94/29 23/95/29 21/96/29 22/97/29
f 24/98/30 22/99/30 2/100/30
f 23/101/31 25/102/31 1/103/31
f 26/104/32 25/105/32 23/106/32 24/107/32
f 26/108/33 24/109/33 2/110/33
f 25/111/34 3/112/34 1/113/34
f 4/114/35 3/115/35 25/116/35 26/117/35
f 4/118/36 26/119/36 2/120/36