# Made in Blockbench 4.9.4
mtllib metal_roller_roller3.mtl

o cylinder
v -0.609375 0.8125 0.5
v 1.578125 0.8125 0.5
v -0.609375 0.8376202367904177 0.59375
v 1.578125 0.8376202367904177 0.59375
v -0.609375 0.8811297632095823 0.5686297632095823
v 1.578125 0.8811297632095823 0.5686297632095823
v -0.609375 0.90625 0.5251202367904177
v 1.578125 0.90625 0.5251202367904177
v -0.609375 0.90625 0.47487976320958225
v 1.578125 0.90625 0.47487976320958225
v -0.609375 0.8811297632095823 0.43137023679041775
v 1.578125 0.8811297632095823 0.43137023679041775
v -0.609375 0.8376202367904177 0.40625
v 1.578125 0.8376202367904177 0.40625
v -0.609375 0.7873797632095823 0.40625
v 1.578125 0.7873797632095823 0.40625
v -0.609375 0.7438702367904177 0.43137023679041775
v 1.578125 0.7438702367904177 0.43137023679041775
v -0.609375 0.71875 0.47487976320958225
v 1.578125 0.71875 0.47487976320958225
v -0.609375 0.71875 0.5251202367904177
v 1.578125 0.71875 0.5251202367904177
v -0.609375 0.7438702367904177 0.5686297632095823
v 1.578125 0.7438702367904177 0.5686297632095823
v -0.609375 0.7873797632095823 0.59375
v 1.578125 0.7873797632095823 0.59375
vt 0.3203125 0.13985859374999998
vt 0.32345234375 0.14529765625000002
vt 0.33203125 0.13671875
vt 0.1328125 0.0859375
vt 0.40625 0.0859375
vt 0.40625 0.07965781250000004
vt 0.1328125 0.07965781250000004
vt 0.37186015625 0.14529765625000002
vt 0.375 0.13985859374999998
vt 0.36328125 0.13671875
vt 0.32345234375 0.14529765625000002
vt 0.32889140625 0.1484375
vt 0.33203125 0.13671875
vt 0.0390625 0.13587812499999996
vt 0.3125 0.13587812499999996
vt 0.3125 0.1295984375
vt 0.0390625 0.1295984375
vt 0.36642109375 0.1484375
vt 0.37186015625 0.14529765625000002
vt 0.36328125 0.13671875
vt 0.32889140625 0.1484375
vt 0.33517109375 0.1484375
vt 0.33203125 0.13671875
vt 0.0390625 0.14215781250000004
vt 0.3125 0.14215781250000004
vt 0.3125 0.13587812499999996
vt 0.0390625 0.13587812499999996
vt 0.36014140625 0.1484375
vt 0.36642109375 0.1484375
vt 0.36328125 0.13671875
vt 0.33517109375 0.1484375
vt 0.34061015625 0.14529765625000002
vt 0.33203125 0.13671875
vt 0.0390625 0.1484375
vt 0.3125 0.1484375
vt 0.3125 0.14215781250000004
vt 0.0390625 0.14215781250000004
vt 0.35470234375 0.14529765625000002
vt 0.36014140625 0.1484375
vt 0.36328125 0.13671875
vt 0.34061015625 0.14529765625000002
vt 0.34375 0.13985859374999998
vt 0.33203125 0.13671875
vt 0.40625 0.048407812500000036
vt 0.1328125 0.048407812500000036
vt 0.1328125 0.0546875
vt 0.40625 0.0546875
vt 0.3515625 0.13985859374999998
vt 0.35470234375 0.14529765625000002
vt 0.36328125 0.13671875
vt 0.34375 0.13985859374999998
vt 0.34375 0.13357890625000002
vt 0.33203125 0.13671875
vt 0.40625 0.04212812500000007
vt 0.1328125 0.04212812500000007
vt 0.1328125 0.048407812500000036
vt 0.40625 0.048407812500000036
vt 0.3515625 0.13357890625000002
vt 0.3515625 0.13985859374999998
vt 0.36328125 0.13671875
vt 0.34375 0.13357890625000002
vt 0.34061015625 0.12813984374999998
vt 0.33203125 0.13671875
vt 0.40625 0.0358484375
vt 0.1328125 0.0358484375
vt 0.1328125 0.04212812500000007
vt 0.40625 0.04212812500000007
vt 0.35470234375 0.12813984374999998
vt 0.3515625 0.13357890625000002
vt 0.36328125 0.13671875
vt 0.34061015625 0.12813984374999998
vt 0.33517109375 0.125
vt 0.33203125 0.13671875
vt 0.1328125 0.10002968749999996
vt 0.40625 0.10002968749999996
vt 0.40625 0.09375
vt 0.1328125 0.09375
vt 0.36014140625 0.125
vt 0.35470234375 0.12813984374999998
vt 0.36328125 0.13671875
vt 0.33517109375 0.125
vt 0.32889140625 0.125
vt 0.33203125 0.13671875
vt 0.1328125 0.10630937499999993
vt 0.40625 0.10630937499999993
vt 0.40625 0.10002968749999996
vt 0.1328125 0.10002968749999996
vt 0.36642109375 0.125
vt 0.36014140625 0.125
vt 0.36328125 0.13671875
vt 0.32889140625 0.125
vt 0.32345234375 0.12813984374999998
vt 0.33203125 0.13671875
vt 0.1328125 0.1125890625
vt 0.40625 0.1125890625
vt 0.40625 0.10630937499999993
vt 0.1328125 0.10630937499999993
vt 0.37186015625 0.12813984374999998
vt 0.36642109375 0.125
vt 0.36328125 0.13671875
vt 0.32345234375 0.12813984374999998
vt 0.3203125 0.13357890625000002
vt 0.33203125 0.13671875
vt 0.1328125 0.07337812500000007
vt 0.40625 0.07337812500000007
vt 0.40625 0.0670984375
vt 0.1328125 0.0670984375
vt 0.375 0.13357890625000002
vt 0.37186015625 0.12813984374999998
vt 0.36328125 0.13671875
vt 0.3203125 0.13357890625000002
vt 0.3203125 0.13985859374999998
vt 0.33203125 0.13671875
vt 0.1328125 0.07965781250000004
vt 0.40625 0.07965781250000004
vt 0.40625 0.07337812500000007
vt 0.1328125 0.07337812500000007
vt 0.375 0.13985859374999998
vt 0.375 0.13357890625000002
vt 0.36328125 0.13671875
vn -1 0 0
vn 0 0.4999999999999999 0.8660254037844387
vn 1 0 0
vn -1 0 0
vn 0 0.8660254037844387 0.49999999999999994
vn 1 0 0
vn -1 0 0
vn 0 1 0
vn 1 0 0
vn -1 0 0
vn 0 0.8660254037844388 -0.5
vn 1 0 0
vn -1 0 0
vn 0 0.4999999999999999 -0.8660254037844387
vn 1 0 0
vn -1 0 0
vn 0 2.7622724904225853e-16 -1
vn 1 0 0
vn -1 0 0
vn 0 -0.4999999999999999 -0.8660254037844387
vn 1 0 0
vn -1 0 0
vn 0 -0.8660254037844388 -0.4999999999999997
vn 1 0 0
vn -1 0 0
vn 0 -1 0
vn 1 0 0
vn -1 0 0
vn 0 -0.8660254037844388 0.49999999999999983
vn 1 0 0
vn -1 0 0
vn 0 -0.5000000000000003 0.8660254037844387
vn 1 0 0
vn -1 0 0
vn 0 0 1
vn 1 0 0
usemtl m_305bbb48-0865-514a-2573-6f96182f18f2
f 3/1/1 5/2/1 1/3/1
f 6/4/2 5/5/2 3/6/2 4/7/2
f 6/8/3 4/9/3 2/10/3
f 5/11/4 7/12/4 1/13/4
f 8/14/5 7/15/5 5/16/5 6/17/5
f 8/18/6 6/19/6 2/20/6
f 7/21/7 9/22/7 1/23/7
f 10/24/8 9/25/8 7/26/8 8/27/8
f 10/28/9 8/29/9 2/30/9
f 9/31/10 11/32/10 1/33/10
f 12/34/11 11/35/11 9/36/11 10/37/11
f 12/38/12 10/39/12 2/40/12
f 11/41/13 13/42/13 1/43/13
f 14/44/14 13/45/14 11/46/14 12/47/14
f 14/48/15 12/49/15 2/50/15
f 13/51/16 15/52/16 1/53/16
f 16/54/17 15/55/17 13/56/17 14/57/17
f 16/58/18 14/59/18 2/60/18
f 15/61/19 17/62/19 1/63/19
f 18/64/20 17/65/20 15/66/20 16/67/20
f 18/68/21 16/69/21 2/70/21
f 17/71/22 19/72/22 1/73/22
f 20/74/23 19/75/23 17/76/23 18/77/23
f 20/78/24 18/79/24 2/80/24
f 19/81/25 21/82/25 1/83/25
f 22/84/26 21/85/26 19/86/26 20/87/26
f 22/88/27 20/89/27 2/90/27
f 21/91/28 23/92/28 1/93/28
f 24/94/29 23/95/29 21/96/29 22/97/29
f 24/98/30 22/99/30 2/100/30
f 23/101/31 25/102/31 1/103/31
f 26/104/32 25/105/32 23/106/32 24/107/32
f 26/108/33 24/109/33 2/110/33
f 25/111/34 3/112/34 1/113/34
f 4/114/35 3/115/35 25/116/35 26/117/35
f 4/118/36 26/119/36 2/120/36