# Made in Blockbench 4.9.3
mtllib steam_engine_lever2.mtl

o cube
v -3.0700000000000003 1.515625 0.6550000000000005
v -3.0700000000000003 1.515625 0.7162500000000005
v -3.0700000000000003 1.4543749999999998 0.6550000000000005
v -3.0700000000000003 1.4543749999999998 0.7162500000000005
v 0.010625000000000107 1.515625 0.71625
v 0.010625000000000107 1.515625 0.6550000000000002
v 0.010625000000000107 1.4543749999999998 0.71625
v 0.010625000000000107 1.4543749999999998 0.6550000000000002
vt 0.5703125 0.71875
vt 0.76171875 0.71875
vt 0.76171875 0.71484375
vt 0.5703125 0.71484375
vt 0.27734375 0.73828125
vt 0.28125 0.73828125
vt 0.28125 0.734375
vt 0.27734375 0.734375
vt 0.5703125 0.71875
vt 0.76171875 0.71875
vt 0.76171875 0.71484375
vt 0.5703125 0.71484375
vt 0.1875 0.65625
vt 0.19140625 0.65625
vt 0.19140625 0.65234375
vt 0.1875 0.65234375
vt 0.765625 0.71484375
vt 0.57421875 0.71484375
vt 0.57421875 0.71875
vt 0.765625 0.71875
vt 0.76171875 0.71875
vt 0.5703125 0.71875
vt 0.5703125 0.71484375
vt 0.76171875 0.71484375
vn 1.2246467991473532e-16 0 1
vn -1 0 1.2246467991473532e-16
vn -1.2246467991473532e-16 0 -1
vn 1 0 -1.2246467991473532e-16
vn 0 1 0
vn 0 -1 0
usemtl m_8076dc8f-3e37-0811-71e2-dd3f3da0b065
f 4/4/1 7/3/1 5/2/1 2/1/1
f 3/8/2 4/7/2 2/6/2 1/5/2
f 8/12/3 3/11/3 1/10/3 6/9/3
f 7/16/4 8/15/4 6/14/4 5/13/4
f 6/20/5 1/19/5 2/18/5 5/17/5
f 7/24/6 4/23/6 3/22/6 8/21/6