# Made in Blockbench 4.7.4
mtllib uM_photolithography_machine_mirrored.mtl

o cube
v 0.578125 3.5 1.5
v 0.578125 3.5 0.875
v 0.578125 3 1.5
v 0.578125 3 0.875
v -0.625 3.5 0.875
v -0.625 3.5 1.5
v -0.625 3 0.875
v -0.625 3 1.5
vt 0.36328125 0.6484375
vt 0.2890625 0.6484375
vt 0.2890625 0.6171875
vt 0.36328125 0.6171875
vt 0.40234375 0.6484375
vt 0.36328125 0.6484375
vt 0.36328125 0.6171875
vt 0.40234375 0.6171875
vt 0.4765625 0.6484375
vt 0.40234375 0.6484375
vt 0.40234375 0.6171875
vt 0.4765625 0.6171875
vt 0.2890625 0.6484375
vt 0.25 0.6484375
vt 0.25 0.6171875
vt 0.2890625 0.6171875
vt 0.2890625 0.6484375
vt 0.36328125 0.6484375
vt 0.36328125 0.6875
vt 0.2890625 0.6875
vt 0.36328125 0.6875
vt 0.4375 0.6875
vt 0.4375 0.6484375
vt 0.36328125 0.6484375
vn 0 0 -1
vn 1 0 0
vn 0 0 1
vn -1 0 0
vn 0 1 0
vn 0 -1 0
usemtl m_8cbfc414-d17e-e052-41ba-4009d0458e6d
f 4/4/1 7/3/1 5/2/1 2/1/1
f 3/8/2 4/7/2 2/6/2 1/5/2
f 8/12/3 3/11/3 1/10/3 6/9/3
f 7/16/4 8/15/4 6/14/4 5/13/4
f 6/20/5 1/19/5 2/18/5 5/17/5
f 7/24/6 4/23/6 3/22/6 8/21/6
o cube
v 1.8125 2.25 0.875
v 1.8125 2.25 0.25
v 1.8125 1.9375 0.875
v 1.8125 1.9375 0.25
v 1.1875 2.25 0.25
v 1.1875 2.25 0.875
v 1.1875 1.9375 0.25
v 1.1875 1.9375 0.875
vt 0.453125 0.90234375
vt 0.4140625 0.90234375
vt 0.4140625 0.8828125
vt 0.453125 0.8828125
vt 0.4921875 0.90234375
vt 0.453125 0.90234375
vt 0.453125 0.8828125
vt 0.4921875 0.8828125
vt 0.53125 0.90234375
vt 0.4921875 0.90234375
vt 0.4921875 0.8828125
vt 0.53125 0.8828125
vt 0.4140625 0.90234375
vt 0.375 0.90234375
vt 0.375 0.8828125
vt 0.4140625 0.8828125
vt 0.4140625 0.90234375
vt 0.453125 0.90234375
vt 0.453125 0.94140625
vt 0.4140625 0.94140625
vt 0.453125 0.94140625
vt 0.4921875 0.94140625
vt 0.4921875 0.90234375
vt 0.453125 0.90234375
vn 0 0 -1
vn 1 0 0
vn 0 0 1
vn -1 0 0
vn 0 1 0
vn 0 -1 0
usemtl m_8cbfc414-d17e-e052-41ba-4009d0458e6d
f 12/28/7 15/27/7 13/26/7 10/25/7
f 11/32/8 12/31/8 10/30/8 9/29/8
f 16/36/9 11/35/9 9/34/9 14/33/9
f 15/40/10 16/39/10 14/38/10 13/37/10
f 14/44/11 9/43/11 10/42/11 13/41/11
f 15/48/12 12/47/12 11/46/12 16/45/12
o cube
v 1.8125 2.25 1.75
v 1.8125 2.25 1.125
v 1.8125 1.9375 1.75
v 1.8125 1.9375 1.125
v 1.1875 2.25 1.125
v 1.1875 2.25 1.75
v 1.1875 1.9375 1.125
v 1.1875 1.9375 1.75
vt 0.453125 0.9609375
vt 0.4140625 0.9609375
vt 0.4140625 0.94140625
vt 0.453125 0.94140625
vt 0.4921875 0.9609375
vt 0.453125 0.9609375
vt 0.453125 0.94140625
vt 0.4921875 0.94140625
vt 0.53125 0.9609375
vt 0.4921875 0.9609375
vt 0.4921875 0.94140625
vt 0.53125 0.94140625
vt 0.4140625 0.9609375
vt 0.375 0.9609375
vt 0.375 0.94140625
vt 0.4140625 0.94140625
vt 0.4140625 0.9609375
vt 0.453125 0.9609375
vt 0.453125 1
vt 0.4140625 1
vt 0.453125 1
vt 0.4921875 1
vt 0.4921875 0.9609375
vt 0.453125 0.9609375
vn 0 0 -1
vn 1 0 0
vn 0 0 1
vn -1 0 0
vn 0 1 0
vn 0 -1 0
usemtl m_8cbfc414-d17e-e052-41ba-4009d0458e6d
f 20/52/13 23/51/13 21/50/13 18/49/13
f 19/56/14 20/55/14 18/54/14 17/53/14
f 24/60/15 19/59/15 17/58/15 22/57/15
f 23/64/16 24/63/16 22/62/16 21/61/16
f 22/68/17 17/67/17 18/66/17 21/65/17
f 23/72/18 20/71/18 19/70/18 24/69/18
o cube
v 1 3 2
v 1 3 0
v 1 0 2
v 1 0 0
v -1 3 0
v -1 3 2
v -1 0 0
v -1 0 2
vt 0.25 0.875
vt 0.125 0.875
vt 0.125 0.6875
vt 0.25 0.6875
vt 0.375 0.875
vt 0.25 0.875
vt 0.25 0.6875
vt 0.375 0.6875
vt 0.5 0.875
vt 0.375 0.875
vt 0.375 0.6875
vt 0.5 0.6875
vt 0.125 0.875
vt 0 0.875
vt 0 0.6875
vt 0.125 0.6875
vt 0.125 0.875
vt 0.25 0.875
vt 0.25 1
vt 0.125 1
vt 0.25 1
vt 0.375 1
vt 0.375 0.875
vt 0.25 0.875
vn 0 0 -1
vn 1 0 0
vn 0 0 1
vn -1 0 0
vn 0 1 0
vn 0 -1 0
usemtl m_8cbfc414-d17e-e052-41ba-4009d0458e6d
f 28/76/19 31/75/19 29/74/19 26/73/19
f 27/80/20 28/79/20 26/78/20 25/77/20
f 32/84/21 27/83/21 25/82/21 30/81/21
f 31/88/22 32/87/22 30/86/22 29/85/22
f 30/92/23 25/91/23 26/90/23 29/89/23
f 31/96/24 28/95/24 27/94/24 32/93/24
o cube
v 1 1.9375 2
v 1 1.9375 0
v 1 0.6875 2
v 1 0.6875 0
v 2 1.9375 2
v 2 1.9375 0
v 2 0.9375 2
v 2 0.9375 0
vt 0 0.5625
vt 0.125 0.5625
vt 0.125 0.5
vt 0 0.5
vt 0.1875 0.5625
vt 0.3125 0.5625
vt 0.3125 0.5
vt 0.1875 0.5
vt 0.1875 0.5625
vt 0.125 0.5625
vt 0.125 0.6875
vt 0.1875 0.6875
vt 0.25 0.6875
vt 0.1875 0.6875
vt 0.1875 0.5625
vt 0.25 0.5625
vt 0.3125 0.5625
vt 0.375 0.5625
vt 0.375 0.5
vt 0.3125 0.5
vt 0.125 0.5625
vt 0.1875 0.5625
vt 0.1875 0.5
vt 0.125 0.5
vn -1 0 0
vn 1 0 0
vn 0 1 0
vn 0.24253562503633297 -0.9701425001453319 0
vn 0 0 1
vn 0 0 -1
usemtl m_8cbfc414-d17e-e052-41ba-4009d0458e6d
f 33/97/25 34/98/25 36/99/25 35/100/25
f 38/101/26 37/102/26 39/103/26 40/104/26
f 38/105/27 34/106/27 33/107/27 37/108/27
f 39/109/28 35/110/28 36/111/28 40/112/28
f 37/113/29 33/114/29 35/115/29 39/116/29
f 34/117/30 38/118/30 40/119/30 36/120/30